<svg xmlns="http://www.w3.org/2000/svg" width="87" height="9.563" viewBox="0 0 87 9.563">
  <g id="Group_26" data-name="Group 26" transform="translate(-104 -399.89)">
    <path id="Path_179" data-name="Path 179" d="M352.79,400.6v-.32h-4.51v.32h.7v6.148l-4.2-6.468h-1.955v.32h.7v8.244h-1.211l-3.047-8.955-3.134,8.955H334.96V400.6h.7v-.32h-1.85l-2.331,6.755-2.445-6.755H327.22v.32h.7v8.244h-1.387c-.393,0-.737-.351-.737-.946v-1.3a1.919,1.919,0,0,0-1.321-2.112,2.1,2.1,0,0,0,1.475-1.981c0-1.262-.943-2.223-2.764-2.223h-2.719v.32h.7v8.244h-1.41l-3.048-8.955-3.147,8.955h-.619v.318H314.7v-.318h-.777l.877-2.5h2.857l.837,2.5h-1.074v.318h5.948v-.318h-1.08v-4.2h.725c1.057,0,1.59.433,1.59,1.461v.763c0,1.812,1.194,2.3,1.844,2.3H329v-.318h-.762v-7.3l2.868,7.714,2.709-7.943v7.53h-.7v.318h4.145v-.318h-.776l.877-2.5h2.846l.836,2.5h-1.073v.318h4.567v-.318h-.7v-7.789l5.462,8.4V400.6h1.647v8.244h-.7v.318h2.542v-.318h-.7V400.6ZM314.9,406.03l1.341-3.893,1.309,3.893Zm8.109-1.707h-.725V400.6h.6a1.724,1.724,0,0,1,1.781,1.952,1.757,1.757,0,0,1-1.658,1.77Zm14.457,1.707,1.342-3.893,1.3,3.893Z" transform="translate(-161.79 0)" fill="#2c2c2c"/>
    <path id="Path_180" data-name="Path 180" d="M264.676,400.677c-2.33,0-3.846,2.6-3.846,4.661,0,2.251,1.642,4.648,3.846,4.648s3.858-2.253,3.858-4.648c0-2.063-1.641-4.661-3.858-4.661Zm0,9c-2.232,0-2.358-2.941-2.358-4.34s.167-4.341,2.358-4.341,2.383,2.953,2.383,4.341-.144,4.34-2.383,4.34Z" transform="translate(-121.439 -0.609)" fill="#2c2c2c"/>
    <path id="Path_181" data-name="Path 181" d="M247.954,401.939h.7v8.245h-.7v.318H250.5v-.318h-.7v-8.245h.7v-.32h-2.543v.32Z" transform="translate(-111.468 -1.339)" fill="#2c2c2c"/>
    <path id="Path_182" data-name="Path 182" d="M192.262,410.26c-.392,0-.737-.362-.737-.958v-1.364a1.912,1.912,0,0,0-1.319-2.112,2.1,2.1,0,0,0,1.473-1.981c0-1.262-.941-2.223-2.743-2.223H186.2v.32h.7v8.245h-.7v.318h2.922v-.318h-1.082v-4.2h.725c1.038,0,1.571.437,1.571,1.461v.85c0,1.812,1.192,2.3,1.842,2.3a1.032,1.032,0,0,0,.8-.3l-.188-.259a.754.754,0,0,1-.524.233Zm-3.5-4.6h-.725V401.94h.6a1.719,1.719,0,0,1,1.762,1.953,1.754,1.754,0,0,1-1.639,1.77Z" transform="translate(-63.649 -1.34)" fill="#2c2c2c"/>
    <path id="Path_183" data-name="Path 183" d="M154.339,400.677c-2.342,0-3.858,2.6-3.858,4.661,0,2.251,1.642,4.648,3.858,4.648s3.858-2.253,3.858-4.648c0-2.063-1.639-4.661-3.858-4.661Zm0,9c-2.244,0-2.371-2.941-2.371-4.34s.167-4.341,2.371-4.341,2.385,2.953,2.385,4.341-.144,4.34-2.385,4.34Z" transform="translate(-35.992 -0.609)" fill="#2c2c2c"/>
    <path id="Path_184" data-name="Path 184" d="M137.612,401.939h.7v8.245h-.7v.318h2.543v-.318h-.7v-8.245h.7v-.32h-2.543v.32Z" transform="translate(-26.027 -1.339)" fill="#2c2c2c"/>
    <path id="Path_185" data-name="Path 185" d="M108.731,406.295h.811v1.61a1.742,1.742,0,0,1-1.733,1.773c-2.11,0-2.322-2.671-2.322-4.34,0-1.522.162-4.342,2.487-4.342.883,0,1.849.788,2.05,2.531h.286v-2.813h-.282a.46.46,0,0,1-.524.434c-.311,0-.675-.471-1.536-.471-2.627,0-3.969,2.786-3.969,4.661,0,1.973,1.49,4.647,3.809,4.647,1.251,0,1.362-.752,2.126-.752.236,0,.4.221.426.539h.322v-3.477h.7v-.318h-2.653v.318Z" transform="translate(0 -0.609)" fill="#2c2c2c"/>
    <path id="Path_186" data-name="Path 186" d="M219.025,406.295h.821v1.61a1.751,1.751,0,0,1-1.744,1.773c-2.11,0-2.321-2.671-2.321-4.34,0-1.522.161-4.342,2.487-4.342.884,0,1.86.788,2.061,2.531h.286v-2.813h-.282a.459.459,0,0,1-.523.434c-.309,0-.685-.471-1.547-.471-2.627,0-3.968,2.786-3.968,4.661,0,1.973,1.49,4.647,3.808,4.647,1.264,0,1.375-.752,2.137-.752.236,0,.4.221.426.539h.325v-3.477h.7v-.318h-2.666v.318Z" transform="translate(-85.404 -0.609)" fill="#2c2c2c"/>
  </g>
</svg>
