<svg xmlns="http://www.w3.org/2000/svg" width="61.298" height="10.99" viewBox="0 0 61.298 10.99">
  <g id="Group_23" data-name="Group 23" transform="translate(-203.835 -404.497)">
    <path id="Path_139" data-name="Path 139" d="M330.086,415.547a.123.123,0,0,0,.123.122h3.033a.123.123,0,0,0,.123-.122h0V405.055h0a.123.123,0,0,0-.123-.122h-3.033a.123.123,0,0,0-.123.122h0v10.492Z" transform="translate(-84.893 -0.293)" fill="#2c2c2c" fill-rule="evenodd"/>
    <path id="Path_140" data-name="Path 140" d="M258.859,415.547l-4.466-10.308h0a.2.2,0,0,0-.171-.112h-4.493a.2.2,0,0,0-.171.112h0l-4.466,10.308h0a.075.075,0,0,0,.074.112h3.159a.2.2,0,0,0,.169-.113h0l.645-1.593h0a.2.2,0,0,1,.169-.113h5.344a.192.192,0,0,1,.166.114h0l.606,1.591h0a.192.192,0,0,0,.166.114h3.195a.074.074,0,0,0,.074-.112Zm-8.832-3.947,1.474-3.832h0c.175-.385.342-.437.5-.437s.36.158.465.455h0l1.454,3.814Z" transform="translate(-27.744 -0.423)" fill="#2c2c2c" fill-rule="evenodd"/>
    <path id="Path_141" data-name="Path 141" d="M353.8,404.737h-3.46c-4.186.062-4.827,1.391-4.827,5.28,0,.66,0,1.32.032,1.98.113,2.592,1.534,3.4,3.907,3.574.743.048,2.473.08,2.544.077,0,0,1.949-.029,2.692-.077,2.374-.177,3.794-.982,3.907-3.574.032-.66.032-1.32.032-1.98,0-3.889-.641-5.218-4.827-5.28Zm1.518,5.73c0,1.771-.113,2.463-2.066,2.511-.51.028-1.853.028-2.362,0-1.954-.049-2.067-.741-2.067-2.511h0v-.434h0a10.933,10.933,0,0,1,.048-1.256c.194-1.481,1.308-1.4,2.406-1.432.4-.006,1.185-.006,1.588,0,1.1.032,2.212-.048,2.406,1.432a10.926,10.926,0,0,1,.048,1.256h0v.434Z" transform="translate(-95.301 -0.161)" fill="#2c2c2c" fill-rule="evenodd"/>
    <path id="Path_142" data-name="Path 142" d="M213.614,411.392c-.09,1.094-.472,1.548-2.04,1.587-.509.028-1.853.028-2.362,0-1.953-.049-2.067-.741-2.067-2.511h0v-.434h0a10.847,10.847,0,0,1,.049-1.256c.194-1.481,1.308-1.4,2.406-1.432.4-.006,1.185-.006,1.588,0,1.048.031,2.109-.04,2.373,1.239h3.349c-.195-2.79-1.162-3.793-4.785-3.847h-3.46c-4.187.062-4.827,1.391-4.827,5.28,0,.66,0,1.32.032,1.98.113,2.592,1.534,3.4,3.907,3.574.743.048,2.473.08,2.544.077,0,0,1.949-.029,2.692-.077,2.373-.177,3.794-.982,3.907-3.574.01-.2.016-.4.021-.6h-3.325Z" transform="translate(0 -0.161)" fill="#2c2c2c" fill-rule="evenodd"/>
    <path id="Path_143" data-name="Path 143" d="M292.011,411.177c.727.005,1.437.027,2.163.032h0l.9.039h0c.742.038,1.864-.23,1.866.98,0,.785-.76.8-1.341.83-.84.026-.716.04-1.555.034-.517,0-.558,0-1.091-.024-.726-.038-1.209-.218-1.252-1.024h0l-3.213-.024h0a3.44,3.44,0,0,0,.307,1.837c.766,1.277,2.284,1.515,3.608,1.541h0l1.555.044h0a18.649,18.649,0,0,0,4.163-.291c1.714-.422,2.013-1.515,2.025-3.108a3.174,3.174,0,0,0-.558-2,2.8,2.8,0,0,0-2.18-.986c-1.793-.1-2.2-.129-3.988-.142h0l-.585,0h0c-.71-.005-1.516-.232-1.51-1.1.007-.917.733-.961,1.46-.975.358-.007.785-.006,1.511,0,.517,0,.366.027.883.023.877-.008,1.695.048,1.687,1.03h0l3.229.024,0-.487h0c.018-2.429-1.585-2.734-3.369-2.858-.726-.054-1.469-.059-2.2-.065-1.4-.011-1.389.022-2.795.092-2.488.175-3.654.649-3.673,3.289-.02,2.785,1.445,3.278,3.948,3.3Z" transform="translate(-56.652 0)" fill="#2c2c2c" fill-rule="evenodd"/>
    <path id="Path_144" data-name="Path 144" d="M387.461,433.038a.8.8,0,0,0-.3-.3.821.821,0,0,0-.818,0,.79.79,0,0,0-.3.3.814.814,0,0,0-.109.411.825.825,0,0,0,.416.714.827.827,0,0,0,.808,0,.824.824,0,0,0,.416-.714.814.814,0,0,0-.109-.411Zm-.111.764a.683.683,0,0,1-.257.252.7.7,0,0,1-.687,0,.676.676,0,0,1-.256-.252.684.684,0,0,1-.1-.354.694.694,0,0,1,.093-.349.672.672,0,0,1,.256-.255.7.7,0,0,1,.7,0,.674.674,0,0,1,.256.255.694.694,0,0,1,.093.349.674.674,0,0,1-.1.354Z" transform="translate(-122.438 -18.919)" fill="#2c2c2c" fill-rule="evenodd"/>
    <path id="Path_145" data-name="Path 145" d="M388.013,434.295a.384.384,0,0,0-.113-.144.309.309,0,0,0,.2-.287.285.285,0,0,0-.035-.139.247.247,0,0,0-.1-.1.366.366,0,0,0-.178-.034h-.322v1.013h.16v-.426h.119c.017,0,.043.033.081.1h0l.033.063.139.264h.181l-.168-.311Zm-.274-.236h-.111v-.343h.121a.217.217,0,0,1,.117.023.151.151,0,0,1,.051.057.166.166,0,0,1,.017.077.21.21,0,0,1-.043.128.179.179,0,0,1-.152.058Z" transform="translate(-123.47 -19.567)" fill="#2c2c2c" fill-rule="evenodd"/>
  </g>
</svg>
