<svg xmlns="http://www.w3.org/2000/svg" width="68.156" height="21" viewBox="0 0 68.156 21">
  <g id="Group_17" data-name="Group 17" transform="translate(-127.411 -341.475)">
    <path id="Path_81" data-name="Path 81" d="M138.078,360.759a4.85,4.85,0,0,0,4.415-2.318,21.017,21.017,0,0,0,1.137-2.306c.327-.763.635-1.1,1-1.1.318,0,.519.253.519.654,0,.212-.6,3.278-.626,3.426a2.468,2.468,0,0,1-.519,1.442,2.277,2.277,0,0,1-.536.388,11.249,11.249,0,0,1-5.632,1.531A10.184,10.184,0,0,1,127.411,352.2a10.436,10.436,0,0,1,6.014-9.651,9.944,9.944,0,0,1,5.013-1.06,10.62,10.62,0,0,1,5.172,1.91,1.685,1.685,0,0,1,.837,1.64c.089,1.074.143,2.323.143,2.6,0,.716-.152,1.007-.528,1.007-.323,0-.5-.214-.78-.953-1.095-2.869-2.827-4.371-5.051-4.371a6.141,6.141,0,0,0-5.5,3.755,11.73,11.73,0,0,0-.89,4.864c0,3.246.82,5.661,2.442,7.2A5.393,5.393,0,0,0,138.078,360.759Z" transform="translate(0 0)" fill="#2c2c2c" fill-rule="evenodd"/>
    <path id="Path_82" data-name="Path 82" d="M208.771,344.1c0,.514-.035,5.885-.035,6.008,0,.4.1.591.316.591a1.086,1.086,0,0,0,.549-.225,5.574,5.574,0,0,1,2.691-.729,5.053,5.053,0,0,1,2.869.821,3.481,3.481,0,0,1,1.2,1.648,5.156,5.156,0,0,1,.217,1.829c.018.862.084,6.073.084,6.073,0,1.224.163,1.609.854,2.027.335.2.435.29.423.414-.029.341-.651.372-1.913.372l-3.173.045c-.758,0-1.074-.1-1.074-.343,0-.152.147-.325.517-.608a1.761,1.761,0,0,0,.71-1.54c0-.113-.1-7.142-.1-7.142-.021-1.271-1.068-1.538-1.875-1.569a2.589,2.589,0,0,0-2.008.973,2.769,2.769,0,0,0-.235,1.444c.011.79-.033,5.82-.033,5.969a3.067,3.067,0,0,0,.191,1.242c.117.244.227.354.615.6.466.29.661.479.661.639,0,.263-.435.353-.955.353l-4.272,0c-.7,0-1.022-.1-1.007-.331.016-.262.5-.456.7-.679a1.651,1.651,0,0,0,.43-.974c.008-.273.018-13.434.018-13.434-.03-1.252-.261-1.429-.568-1.67-.291-.227-.459-.387-.459-.545,0-.128.13-.26.459-.379a20.982,20.982,0,0,0,2.063-.835c1.016-.567,1.2-1.17,1.7-1.133C208.763,343.027,208.771,343.583,208.771,344.1Z" transform="translate(-58.06 -1.152)" fill="#2c2c2c" fill-rule="evenodd"/>
    <path id="Path_83" data-name="Path 83" d="M271.294,344.134s.117,15.691.117,15.9a3.007,3.007,0,0,0,.321,1.822c.209.268,1.166.536,1.107.983-.028.21-.574.237-1.123.237-.134,0-4.13.031-4.13.031-.891-.025-1.145-.086-1.145-.268,0-.209.487-.466.748-.685.388-.329.5-.46.5-1.216,0-.083-.056-13.75-.056-13.75a1.235,1.235,0,0,0-.576-1.135c-.278-.175-.495-.347-.377-.579s.4-.334.738-.423a10.256,10.256,0,0,0,1.323-.5,5.905,5.905,0,0,0,1.421-.9c.311-.239.393-.381.671-.409C271.134,343.209,271.313,343.418,271.294,344.134Z" transform="translate(-105.392 -1.333)" fill="#2c2c2c" fill-rule="evenodd"/>
    <path id="Path_84" data-name="Path 84" d="M384.944,349.868c.724.172,1.091.442,1.091.944,0,.623-.63,1.359-1.737,2.023a5.766,5.766,0,0,1-2.334.84c-.243,0-.749-.018-.749-.475,0-.233.225-.47.781-.82a1.5,1.5,0,0,0,.583-.522,1.2,1.2,0,0,0,.2-.665,1.18,1.18,0,0,0-.421-.887c-.272-.281-.377-.456-.377-.625,0-.448.633-.537.992-.418C383.5,349.439,384.861,349.847,384.944,349.868Z" transform="translate(-192.399 -5.862)" fill="#2c2c2c" fill-rule="evenodd"/>
    <path id="Path_85" data-name="Path 85" d="M367.192,378.253c.568,0,2.177.082,2.433-.176.212-.216.193-.407.193-.8a6.051,6.051,0,0,0-6-6.291c-4.155,0-6.556,3.857-6.556,6.68a6.847,6.847,0,0,0,11.809,4.716,1.3,1.3,0,0,0,.426-.834.566.566,0,0,0-.561-.572c-.2,0-.427.127-.763.438-.573.525-2.19,1.721-3.787,1.383-3.109-.658-3.049-4.126-2.9-4.544Zm-5.74-2.514c.269-1.106.717-3.23,2.332-3.23,1.315,0,1.944,1.705,2.121,3.38.046.416.091.807-.9.807l-2.725,0C361.3,376.691,361.3,376.354,361.452,375.738Z" transform="translate(-174.252 -22.399)" fill="#2c2c2c" fill-rule="evenodd"/>
    <path id="Path_86" data-name="Path 86" d="M302.623,370.879a6.839,6.839,0,0,0-7.151,6.608,6.907,6.907,0,1,0,7.151-6.608Zm.068,12.045c-2.48,0-3.2-2.571-3.2-5.292,0-3.527,1.584-5.2,2.721-5.2,2.72,0,3.139,3.065,3.139,5.2C305.353,381.309,303.977,382.924,302.691,382.924Z" transform="translate(-127.413 -22.318)" fill="#2c2c2c" fill-rule="evenodd"/>
  </g>
</svg>
