<svg xmlns="http://www.w3.org/2000/svg" width="71.244" height="20" viewBox="0 0 71.244 20">
  <g id="Group_21" data-name="Group 21" transform="translate(-202.835 -395.008)">
    <path id="Path_96" data-name="Path 96" d="M203.6,395.008v.435h70.951v-.435Z" transform="translate(-0.474)" fill="#2c2c2c" fill-rule="evenodd"/>
    <path id="Path_97" data-name="Path 97" d="M203.6,446.386v.435h70.951v-.435Z" transform="translate(-0.474 -31.814)" fill="#2c2c2c" fill-rule="evenodd"/>
    <path id="Path_98" data-name="Path 98" d="M314.275,416.511c3.13-1.279,4.246-2.939,4.246-6.205,0-4-1.66-5.961-5.961-5.961-3.647,0-5.77,2.069-5.77,5.8,0,3.348,1.2,5.47,3.592,6.287.871.3,1.878,0,3.7,1.061,2.776,1.606,2.776,1.633,3.484,1.633.408,0,.626-.163.626-.381,0-.408-.789,0-1.769-1.2a3.451,3.451,0,0,0-1.987-1.007l-.163-.027Zm-1.63-11.323c2.613,0,4,1.905,4,5.307,0,3.456-1.225,5.389-3.974,5.389-2.477,0-4.055-1.851-4.055-5.361,0-3.4,1.551-5.335,4.028-5.335Z" transform="translate(-64.381 -5.808)" fill="#2c2c2c" fill-rule="evenodd"/>
    <path id="Path_99" data-name="Path 99" d="M212.443,404.421a30.453,30.453,0,0,0-4.164-.353c-3.538,0-5.443,2.091-5.443,6.054,0,4.208,2.286,6.38,6.342,6.38a6.264,6.264,0,0,0,2.749-.461,2.759,2.759,0,0,0,.925-1.6c0-.19-.027-.244-.082-.244a6.167,6.167,0,0,1-3.511,1.412c-2.694,0-4.3-2.009-4.3-5.457,0-3.367,1.524-5.158,4.355-5.158a4.958,4.958,0,0,1,3.184.95c.082,0,.109-.027.109-.081,0-.163-.136-.869-.163-1.3v-.136Z" transform="translate(0 -5.605)" fill="#2c2c2c" fill-rule="evenodd"/>
    <path id="Path_100" data-name="Path 100" d="M265.122,404.983c.463,2.036.517,2.443.517,6.244,0,2.334-.055,4.343-.109,5.864v.163h1.8a2.226,2.226,0,0,1-.708-1.927l.217-7.737,7.1,9.664H275l-.136-12.27H273.26a2.194,2.194,0,0,1,.68,1.9l-.354,6.624-6.26-8.524Z" transform="translate(-38.574 -6.171)" fill="#2c2c2c" fill-rule="evenodd"/>
    <path id="Path_101" data-name="Path 101" d="M341.2,404.98a50.679,50.679,0,0,1,.326,5.294c0,1.086-.055,1.873-.055,2.661,0,3.258,1.116,4.588,4.518,4.588,3.865,0,4.572-1.33,4.572-4.914V404.98h-1.687a3.754,3.754,0,0,1,.572,1.873l-.109,4.29c0,5.077-.817,5.484-3.076,5.484-2.885,0-2.912-1.737-2.912-5.538,0-1.14.109-4.235.3-6v-.109Z" transform="translate(-85.704 -6.169)" fill="#2c2c2c" fill-rule="evenodd"/>
    <path id="Path_102" data-name="Path 102" d="M369.957,404.988a42.88,42.88,0,0,1,.381,6.3,53.226,53.226,0,0,1-.354,5.755v.109c1.524-.136,2.449-.19,3.211-.19,1.361,0,2.177.19,2.912.19,1.007,0,1.415-.272,1.415-1.71v-.109a2.259,2.259,0,0,1-1.851.923,18.516,18.516,0,0,1-3.457-.434l-.136-.027.164-4.533h4.817a1.876,1.876,0,0,1-.054-.489,2.35,2.35,0,0,1,.027-.407l.027-.108h-4.817V406.21c1.66-.109,3.62-.3,4.164-.3.326,0,.354.027,1.007.57l.054.055-.19-1.548Z" transform="translate(-103.493 -6.174)" fill="#2c2c2c" fill-rule="evenodd"/>
    <path id="Path_103" data-name="Path 103" d="M232.154,404.983a54.775,54.775,0,0,1,.381,7.493c0,1.439-.055,2.633-.163,4.669v.108c1.252-.081,1.932-.136,2.776-.136,1.334,0,1.415.109,2.45.109a2.148,2.148,0,0,0,1.306-.3,2.876,2.876,0,0,0,.517-1.357c0-.19-.082-.217-.136-.217-.19,0-.517.95-1.66.95-.952,0-1.524-.272-2.967-.272h-.163c0-5.375,0-8.144.136-10.94v-.108Z" transform="translate(-18.156 -6.171)" fill="#2c2c2c" fill-rule="evenodd"/>
    <path id="Path_104" data-name="Path 104" d="M253.783,404.983c.245,3.2.3,4.289.3,6.814,0,2.145-.027,2.742-.163,5.348v.108h2.123c-.109-2.335-.136-3.855-.136-6.488,0-.787,0-.787.163-5.674v-.108Z" transform="translate(-31.548 -6.171)" fill="#2c2c2c" fill-rule="evenodd"/>
    <path id="Path_105" data-name="Path 105" d="M297.229,404.983c.245,2.986.3,4.344.3,6.732,0,2.144-.055,4.1-.163,5.429v.108h2.123c-.082-2.389-.136-4.045-.136-6.434,0-.733,0-.76.163-5.728v-.108Z" transform="translate(-58.45 -6.171)" fill="#2c2c2c" fill-rule="evenodd"/>
  </g>
</svg>
