<svg xmlns="http://www.w3.org/2000/svg" width="55.572" height="20.32" viewBox="0 0 55.572 20.32">
  <g id="Group_20" data-name="Group 20" transform="translate(-215.758 -392.09)">
    <path id="Path_89" data-name="Path 89" d="M301.8,394.159a9.041,9.041,0,0,1,.852,3.857h-3.062a3.36,3.36,0,0,0-.718-2.651,1.233,1.233,0,0,0-1.168-.105,1.668,1.668,0,0,0-.842,1.55A4.5,4.5,0,0,0,298.919,400l2.105,1.885a7.06,7.06,0,0,1,1.723,7.684,4.4,4.4,0,0,1-4.21,2.6,3.894,3.894,0,0,1-3.7-1.961,8.193,8.193,0,0,1-.813-3.981l3.024.019c.039,1.033.039,2.115.9,2.775a1.437,1.437,0,0,0,1.512-.1,2.153,2.153,0,0,0,.574-2.287,4.421,4.421,0,0,0-1.4-1.99l-2.182-1.875a6.923,6.923,0,0,1-2.536-6.785,4.608,4.608,0,0,1,2.756-3.531,4.269,4.269,0,0,1,4.536.881,3.967,3.967,0,0,1,.594.823Z" transform="translate(-50.88 0)" fill="#2c2c2c" fill-rule="evenodd"/>
    <path id="Subtraction_1" data-name="Subtraction 1" d="M-176.536,277.492h-4.22v-19.32h3.416c1.735.032,4.02.52,5.053,2.66a14.391,14.391,0,0,1,1,6.21l-.009,3.359a10.35,10.35,0,0,1-1.274,5.12A4.936,4.936,0,0,1-176.536,277.492Zm-.708-16.306h0v13.263a3.78,3.78,0,0,0,.474.037,1.51,1.51,0,0,0,.435-.056c1.107-.395,1.227-1.577,1.333-2.62l.006-.059.01-7.043,0-.067a6.527,6.527,0,0,0-.532-2.785C-175.859,261.237-176.529,261.185-177.244,261.185Z" transform="translate(397.014 134.419)" fill="#2c2c2c" stroke="rgba(0,0,0,0)" stroke-width="1"/>
    <path id="Path_91" data-name="Path 91" d="M253.816,412.719H250.2v-19.33h3.617v19.33Z" transform="translate(-22.276 -0.799)" fill="#2c2c2c" fill-rule="evenodd"/>
    <path id="Path_92" data-name="Path 92" d="M275.843,396.4h-4.4l-.01,4.833,3.282.01.01,3.177h-3.244v5.244h4.574v3.053h-8.2v-19.33h7.991V396.4Z" transform="translate(-33.862 -0.799)" fill="#2c2c2c" fill-rule="evenodd"/>
    <path id="Path_93" data-name="Path 93" d="M333.59,396.356h-4.354l-.01,4.88,3.282.01v3.177h-3.177V409.6H333.9v3.12h-8.268v-19.33h7.962v2.966Z" transform="translate(-71.781 -0.799)" fill="#2c2c2c" fill-rule="evenodd"/>
    <path id="Path_94" data-name="Path 94" d="M357.867,409.581h4.067v3.139h-7.627v-19.33h3.56v16.192Z" transform="translate(-90.603 -0.799)" fill="#2c2c2c" fill-rule="evenodd"/>
  </g>
</svg>
