<svg xmlns="http://www.w3.org/2000/svg" width="62.19" height="33" viewBox="0 0 62.19 33">
  <g id="Group_22" data-name="Group 22" transform="translate(-209.504 -374.638)">
    <path id="Path_106" data-name="Path 106" d="M261.354,415.106c-.342-.9-1.616-1.207-2.177-2.015a22.013,22.013,0,0,1-.275-4.4c.085-.295.133-.618.485-.618a24.444,24.444,0,0,0,5.086,1.645c1.188.19,1.188.19,2.842.371a11.957,11.957,0,0,0,2.148,1.008,9.181,9.181,0,0,0,2.244-.96c.124-.029.247-.067.371-.1a25.494,25.494,0,0,0,6-1.283l1.654-.685c.7,0,.523,1.711.523,2.13-.1.9-.19,1.8-.275,2.709-.257.78-1.2,1.17-1.806,1.664-.152.162-.295.323-.437.485v-1.464a.114.114,0,0,1,.048-.047c0,.39.01.789.019,1.188.447-.219.266-1.017.275-1.464.285-.114.58-.228.865-.342.827-.228.827-.228.875-.276h-.228c-2.243.732-2.243.732-3.527,1.1a38.163,38.163,0,0,1-5.086.637,34.882,34.882,0,0,1-8.432-.78c-1.065-.333-2.12-.7-3.2-.988v.1a10.623,10.623,0,0,1,1.664.542c.019.409.038.827.057,1.245l.228.228c.009-.4.028-.8.047-1.188a6.5,6.5,0,0,1,.019,1.559Zm17.587-1.378c.01-.228.029-.466.038-.7.047-.01.1-.019.152-.029-.01.21-.019.428-.028.647-.048.028-.1.057-.162.085Zm-.684.551v-1.008l.2-.085v.97a2.2,2.2,0,0,0-.2.123Zm-17.454,0c-.029-.057-.029-.057-.152-.123v-.97l.2.085c-.019.333-.038.665-.048,1.008Zm-.732-.551c-.143-.18-.085-.5-.1-.732h.143c.01.228.019.466.029.694a.567.567,0,0,1-.076.038Zm.551,2.614c-.257-.114-.523-.238-.779-.342-1.122-.7-2.035-1.274-3.394-1.008-.96.456-.96.456-1.093.475.01-.047.019-.1.028-.152a3.432,3.432,0,0,1,2.9-.37c.732.361,1.331.732,2.015,1.093.57.2.865.2,1.265-.295a14.459,14.459,0,0,0,.085-2.063l.057-.028a17.451,17.451,0,0,0,4.411.922c3.8.238,7.719.314,11.36-.932.01,1.008-.361,2.928,1.236,2.443,1.283-.732,1.283-.732,2.015-1.093a3.4,3.4,0,0,1,3.061.37c-.009.038-.019.067-.028.1-.143-.019-.418-.2-1.1-.475-1.5-.276-2.472.456-3.755,1.188-.684.218-1.264.209-1.54-.523a5.445,5.445,0,0,0-.1-1.778,29.665,29.665,0,0,1-15.41,0c-.076,1.283.247,2.367-1.227,2.462Zm.047-.551c-.152-.057-.3-.1-.456-.162-1.625-1.074-3.47-1.749-5.153-.352-.038-.675.628-1.312,1.046-1.759a4.7,4.7,0,0,0-1.35-.846,1.019,1.019,0,0,0,.076-.143,5.461,5.461,0,0,1,4.05-.494,5.121,5.121,0,0,0,.247,1.369,8.942,8.942,0,0,1,2.158,1.835v.323a1.052,1.052,0,0,1-.618.228Zm17.587,0c-.124-.057-.247-.114-.38-.171-.485-.884,1.844-1.759,2.2-2.4.048-.4.1-.789.152-1.188a6.58,6.58,0,0,1,2.89-.028,3.8,3.8,0,0,1,1.284.646,3.924,3.924,0,0,0-1.417.865,2.834,2.834,0,0,1,1.074,1.768,3.543,3.543,0,0,0-3.365-.618,12.771,12.771,0,0,1-2.434,1.122Zm-22.492-2.063a2.484,2.484,0,0,0-1.1-.637c.028-.143.028-.143.085-.171a6.388,6.388,0,0,1,1.15.694,1.574,1.574,0,0,1-.133.114Zm27.531,0c0-.067-.01-.133-.01-.2a3.794,3.794,0,0,1,1.122-.608c.01.047.019.1.038.171a4.279,4.279,0,0,0-1.15.637Z" transform="translate(-29.205 -21.609)" fill="#212121" fill-rule="evenodd"/>
    <path id="Path_107" data-name="Path 107" d="M291.323,385.345h.181l.2-.038.209-.029.352-.029.532-.086.409-.076.447-.086.4-.086.257-.048.19-.048.133.58.171.342.162.285.162.19.247.19.152.181-.333.371-.276.38-.361.722-.086.551.086.637.1.513.086.485.1.532.067.4-.038.551-.1.532-.238.656-.228.409-.219.409-.247.285-.39.409-.342.238-.475.3-.608.285-.542.181-.532.19-.219.009-.694-.162-.913-.466-.589-.4-.409-.2-.238-.247.162-.532-.333-.713-.038-.78.133-.58.114-.285.228-.409.143-.409.038-.333-.19.171-.238.295-.219-.076-.048-.342v-.456l.219-.38.257-.247.219-.133.323-.114.314-.057.257.057.238.1.19.124-.019-.4.029-.5.143-.447.228-.409.247-.361.314-.38.285-.247.228-.209.171-.447.038-.314Z" transform="translate(-50.497 -6.573)" fill="#fff" fill-rule="evenodd"/>
    <path id="Path_108" data-name="Path 108" d="M226.4,445.806l.047-.047c.019-.437.047-.884.067-1.322.1-.218.408-.218.617-.228l.047.047c.171.019.256.038.313.219.019.019.028.038.047.048a2.747,2.747,0,0,0,.275,1.331l.047.048a2.3,2.3,0,0,0,.6.276l.047.047c.152.028.294.057.455.085a.116.116,0,0,0,.047.048,3.264,3.264,0,0,0,1.869-.361.116.116,0,0,1,.047-.048,2.2,2.2,0,0,0,.5-2.11l-.047-.047a2.311,2.311,0,0,0-.095-.228c-.01-.019-.028-.028-.038-.038-.56-.8-1.689-.837-2.562-.989a2.993,2.993,0,0,1-2.107-2c-.01-.019-.029-.028-.047-.047a3.687,3.687,0,0,1,.778-3.118c.019-.01.029-.029.048-.038a4.147,4.147,0,0,1,1.964-.96c.019-.019.029-.038.047-.048a9.558,9.558,0,0,1,3.843.361c-.067,1.426-.067,1.426-.143,2.11a.217.217,0,0,0-.038.048c-.2.152-.341.114-.6.114a1.679,1.679,0,0,1-.256-.989c-.209-.542-.693-.561-1.205-.656-1.148-.01-2.012.409-2.107,1.663v.047c.076,1.673,2.116,1.711,3.387,2a2.835,2.835,0,0,1,1.85,2.947,8.052,8.052,0,0,1-.341,1.331c-.019.019-.038.028-.047.047a4.482,4.482,0,0,1-3.34,2.129,7.5,7.5,0,0,1-3.947-.741c-.01-.314-.019-.618-.029-.932Zm25.7,1.607a.114.114,0,0,0-.047-.048h-.133c-.8-.009-1.585-.019-2.382-.019a.705.705,0,0,1-.152-.865c.721-.209.883-.171,1.044-.9a55.989,55.989,0,0,0,0-7.463l-.114-.371a3.148,3.148,0,0,0-.731-.162.564.564,0,0,1,.095-.96H252.7c.332.361.674.723,1.006,1.074a.116.116,0,0,0,.047.047c.085.1.18.219.275.323a.205.205,0,0,1,.038.048c.721.837,1.433,1.673,2.154,2.519a.2.2,0,0,0,.047.038c.721.827,1.442,1.654,2.173,2.481.076.057.161.114.247.181-.019-4.715-.019-4.715-.067-5.267-.18-.456-.266-.437-.759-.485-.522-.256-.493-.751-.038-1.055,1.414,0,1.414,0,3.3.057a1.128,1.128,0,0,0,.076.152l.047.048v.18l.047.048c-.076.352-.085.428-.418.57-.474.057-.616.1-.73.58v.038c-.01.732-.029,1.464-.048,2.205v.038c-.066,2.8-.066,2.8-.066,6.788a.455.455,0,0,1-.2.133.112.112,0,0,0-.047.048c-.3-.01-.617-.019-.92-.019a4.7,4.7,0,0,1-1.186-1.265c-.019-.019-.029-.038-.047-.048-1.158-1.378-2.315-2.747-3.473-4.126-.019-.009-.028-.028-.047-.038-1.49-1.74-1.49-1.74-2.173-2.481-.009.019-.028.029-.047.048,0,2.13.019,4.25.095,6.37.067.123.123.257.19.38a3.461,3.461,0,0,1,.892.342c.01.2.01.4.019.608a2.1,2.1,0,0,1-.987.228Zm-8.046-10.533a.113.113,0,0,1,.047-.047,1.233,1.233,0,0,1,.361-.3h3.985c.455.19.617.656.18.97-.5.085-.5.085-.636.162a.2.2,0,0,0-.047.038l-.047.047a1.144,1.144,0,0,0-.114.371c-.095,5.086-.095,5.086-.095,7.054.047.951.01,1.046.939,1.217.256.3.341.666-.095.913-2.553,0-2.553,0-4.156.047a.562.562,0,0,1-.095-1.008c.645-.114.712-.171.845-.8q.057-3.693.095-7.377c-.209-.589-.237-.513-.845-.628-.322-.161-.294-.314-.322-.656Zm-8.047,9.754c.01-.019.029-.029.047-.048a1.315,1.315,0,0,1,.047-.181c.664-.257,1.129-.123,1.433-.78.009-.342.019-.675.028-1.008.01-.019.028-.029.047-.047q0-2.909.019-5.818c-.086-1.34-.977-.941-2.173-.941-.6.3-.446,1.7-1.385.951-.01-.371-.019-.742-.029-1.1v-.732c.01-.048.029-.1.038-.143.028-.085.057-.162.085-.247a.343.343,0,0,1,.1-.048c1.319.038,2.648.085,3.976.133,1.689-.048,3.387-.1,5.076-.133.475.143.294,1.759.294,2.215a.579.579,0,0,1-.844.19l-.047-.048a3.554,3.554,0,0,0-.247-.78,2.65,2.65,0,0,0-2.325-.1c-.038.076-.067.162-.1.238v7.605a.668.668,0,0,0,.3.323.208.208,0,0,1,.038.048c.323.047.977.019,1.1.361.009.019.028.028.047.047-.029.171-.047.342-.067.5-.275.275-.636.218-.987.228l-.047-.048c-3.2-.019-3.2-.019-4.023.029a.734.734,0,0,1-.408-.665Zm-26.436.409-.038-.038c0-.247-.057-.523.123-.7.285-.1.693-.152.8-.209a6.507,6.507,0,0,0,.218-1.654.118.118,0,0,1,.047-.047v-1.93a.213.213,0,0,1,.047-.038c-.019-.846-.038-1.683-.047-2.519v-.048c-.01-.646-.019-1.283-.028-1.93-.3-.78-1.186-.114-1.186-1.093a1.037,1.037,0,0,1,.341-.39h7.041l.2.143c0,.171.01.342.01.523-.085.6.038,2.129-1.025,1.6-.076-.181-.161-.637-.256-.818a3.557,3.557,0,0,0-2.59-.114.606.606,0,0,0-.057.152c-.047.97-.047.97-.047,3.622a6.546,6.546,0,0,0,1.8.067,14.532,14.532,0,0,1,1.509-.085.741.741,0,0,1,.142.475c-.019.019-.038.028-.047.047a2.6,2.6,0,0,1-.275.922c-.019.01-.029.028-.047.038-1.006.038-2.012-.067-3.018-.067-.123.1-.095.38-.114.532,0,.837-.2,1.977.38,2.662a2.583,2.583,0,0,1,1.072.295,1.988,1.988,0,0,1-.057.751c-.085.019-.171.048-.247.067-1.518-.019-3.036-.029-4.555-.048-.029-.047-.057-.1-.095-.162Zm13.721-10.628c.019-.01.028-.028.047-.038h1.053a.113.113,0,0,1,.047-.048,1.332,1.332,0,0,1,.968.3c0,.5.01,1.017.01,1.53-.133.485-.3.532-.816.5-.123-.238-.076-.665-.3-.827-.019-.019-.028-.038-.047-.048a8.586,8.586,0,0,0-2.325-.114c-.3.076-.427.076-.531.39-.019.884-.029,1.768-.048,2.652.076.152.2.162.351.209.958-.028,1.917-.057,2.875-.095a.648.648,0,0,1,.294.257,4.514,4.514,0,0,1-.294,1.1c-.37.01-.731.028-1.1.048a.206.206,0,0,0-.038-.048c-.541-.019-1.072-.038-1.6-.047a.116.116,0,0,0-.047.047h-.228c-.019.01-.028.028-.047.048a.329.329,0,0,0-.209.18c0,1.283,0,1.283.1,3.156a.7.7,0,0,0,.484.39c.807-.01,1.613-.01,2.42-.019.019-.019.028-.038.047-.047.712-.276.408-1.388,1.328-1.074.143.133.047.9.047,1.122a.116.116,0,0,0-.047.048,4.062,4.062,0,0,1-.361,1.2c-2.268.019-4.545-.029-6.822.057-.693-.342,0-.713.256-1.074a31.162,31.162,0,0,0,.228-6.236,18.129,18.129,0,0,0-.142-2.149c-.427-.551-1.272-.1-1.006-1.15l.256-.2,5.21-.029Zm38.05,9.811a.2.2,0,0,1,.038-.047,1.5,1.5,0,0,0,.389-.457c.341-.751.693-1.5,1.034-2.243a.113.113,0,0,1,.047-.047c.285-.656.579-1.312.863-1.968a.118.118,0,0,1,.047-.048c.2-.456.4-.922.6-1.378.01-.019.028-.029.047-.047.076-.181.152-.371.228-.552l.038-.038c.712-1.607.712-1.607,1.271-2.766a1.107,1.107,0,0,1,1.319.152q1.082,3.023,2.173,6.046a.207.207,0,0,1,.038.048c.341.9.674,1.8,1.006,2.7.019.019.038.029.048.048.095.228.18.456.275.685.769.085.892.048.892.875-.095.067-.2.133-.294.209-1.034-.019-2.078-.019-3.113-.029h-.047c-.826.019-1.167.152-1.167-.779.209-.314.56-.181.863-.352a4.3,4.3,0,0,0-.6-1.9c-.845-.019-1.689-.028-2.524-.038v-.038h-.826v.038c-.285.162-.493,1.055-.617,1.426-.019.162-.047.333-.067.5.721.228.863.209.712,1.008a1.059,1.059,0,0,1-.436.162c-.323,0-.6-.048-2.7-.048-.284-.295-.2-.513-.133-.894l.6-.228Zm4.023-5.552.038-.038c.114-.266.228-.523.342-.78a27.8,27.8,0,0,1,1.148,3.071c0,.048-.01.1-.01.143-.816.01-1.622.028-2.438.038.266-.827.579-1.625.92-2.434Z" transform="translate(0 -39.84)" fill="#212121" fill-rule="evenodd"/>
    <path id="Path_109" data-name="Path 109" d="M275.6,416.87a.2.2,0,0,1,.048-.038c.057-.01.124-.028.19-.038.01-.038.029-.067.038-.1.019-.01.029-.028.048-.038.028-.162.057-.314.085-.466a.116.116,0,0,0,.047-.048c.019-.114.028-.238.047-.361.019-.019.028-.038.048-.048a2.856,2.856,0,0,0,.057-.742.46.46,0,0,0-.1-.038l-.047-.047v-.133l.047-.048h.19c.01.019.029.029.038.048.123.019.247.029.37.048a.224.224,0,0,0,.048.038h.181a.116.116,0,0,0,.048.048h.181l.047.047c.161.028.333.057.5.1-.057.209-.047.466-.285.466-.085-.295-.275-.371-.6-.342-.057.1-.057.1-.18.8.048.01.1.029.143.038l.048.048h.275c.019.009.029.028.048.047h.18a.517.517,0,0,1-.076.285,1.522,1.522,0,0,0-.2.038.214.214,0,0,0-.038-.048h-.1l-.048-.048c-.114-.01-.228-.01-.333-.01-.028.133-.057.276-.076.418-.019.019-.038.029-.048.047a1.257,1.257,0,0,0,.048.181c.057.028.124.057.19.085v.162a4.173,4.173,0,0,1-1.027-.19.709.709,0,0,1-.038-.152Zm3.479.875c-.01-.019-.028-.029-.038-.048-.124-.009-.247-.028-.371-.038-.019-.019-.028-.038-.048-.047h-.18c-.019-.019-.029-.038-.048-.048-.162-.019-.333-.028-.5-.047l-.048-.048a1.239,1.239,0,0,1-.152-.038v-.114c.19-.1.228-.333.247-.532.01-.019.029-.028.047-.047.01-.123.029-.238.038-.361l.048-.048c.028-.266.067-.523.1-.78.048,0,.048,0,.048-.1h-.048v-.085a1.162,1.162,0,0,0-.152-.038v-.161c.171,0,.342.009.523.019.009.01.028.019.038.038h.19l.047.048c.314.038.789-.038.865.323-.019.01-.029.029-.047.038a2.4,2.4,0,0,0-.076.247.853.853,0,0,0-.152.038v-.19l-.048-.047a.768.768,0,0,1-.133-.048c-.019-.01-.029-.029-.048-.038-.133-.019-.275-.038-.409-.048l-.143.685h.19a.168.168,0,0,0,.038.047h.275c.019.01.029.029.047.048l.143.029c.019.152.019.152-.038.257a1.556,1.556,0,0,1-.514-.057l-.048-.048h-.142a.189.189,0,0,0-.038.048v.1a.2.2,0,0,0-.047.038c-.01.209-.01.409-.019.608.124.029.257.047.38.085.019.01.028.029.048.038.076-.01.152-.029.228-.038.019-.019.029-.038.047-.048l.133-.133a.216.216,0,0,1,.047.038c.019.029.028.067.048.1-.019.01-.028.029-.048.048v.086c-.01.019-.028.029-.047.048a1.576,1.576,0,0,1-.076.19c-.047.01-.1.029-.152.038Zm1.512.228-.038-.038a2.907,2.907,0,0,1-.7-.228,1.321,1.321,0,0,1,.048-.523h.2c.009.048.028.1.038.152-.047,0-.047,0-.047.086h.047c.314.6,1.236.038.646-.456-.019-.019-.038-.029-.047-.047-.143-.047-.275-.086-.409-.133-.019-.019-.038-.028-.048-.047-.047-.048-.1-.085-.143-.133-.019-.019-.029-.038-.047-.047-.295-1.122.732-1.112,1.521-.875v.1a.116.116,0,0,0-.047.048V416c-.019.019-.038.028-.047.048v.085l-.048.048h-.142v-.266a.206.206,0,0,0-.038-.048c-.1-.076-.1-.076-.37-.143a.1.1,0,0,0-.038.048h-.1a.116.116,0,0,0-.047.048c-.057.028-.057.028-.143.228a.194.194,0,0,0-.038.047c.171.457.684.4.979.77.028.114.047.218.076.333a.224.224,0,0,0-.047.038.818.818,0,0,1-.732.694.215.215,0,0,0-.048.038Zm2.063-1.141V416l-.513.028a1.159,1.159,0,0,0-.067.162h-.162v-.475c.2-.019.4-.028.609-.038.009.019.028.028.048.047.465-.019.941-.029,1.416-.047v.551c-.067-.019-.124-.029-.18-.047a.114.114,0,0,1-.048-.048c-.01-.029-.029-.067-.038-.1h-.475c-.009.57-.009,1.141-.009,1.711.048.057.048.057.295.1a1.079,1.079,0,0,0-.038.19h-1.122c-.009-.067-.019-.133-.028-.19.085-.029.181-.057.276-.085.009-.3.028-.618.038-.922Zm2.11.456c-.019-.019-.038-.028-.047-.048v-.37c-.019-.01-.029-.029-.048-.038v-.456c-.019-.019-.029-.038-.048-.048-.01-.323.038-.39-.285-.494v-.162a3.4,3.4,0,0,1,1.027-.124.474.474,0,0,0,.019.114c-.057.076-.057.076-.162.114-.019.01-.028.028-.047.048v.361l.047.047v.418c.019.01.029.028.048.038v.323l.048.047v.323a.214.214,0,0,0,.047.038l.029.2c.066.019.133.038.209.067v.162a1.084,1.084,0,0,0-.19.038.116.116,0,0,0-.048.048c-.218.01-.428.028-.646.038h-.1c0-.067-.01-.123-.01-.19a.708.708,0,0,1,.152-.038v-.457Zm1.416.276c.019-.019.038-.028.048-.047h.047c-.019-.285-.028-.58-.047-.865a.111.111,0,0,0-.048-.048v-.276a.2.2,0,0,0-.038-.048v-.228c-.019-.019-.038-.029-.047-.048-.019-.1-.038-.219-.048-.323-.067-.01-.133-.029-.2-.038,0-.066.01-.123.01-.19a.116.116,0,0,0,.047-.047c.418-.01.608-.1.922.19a.2.2,0,0,0,.047.038l.314.285c.019.01.028.029.048.038s.028.038.048.048c.209.18.428.361.637.551.019.01.028.028.048.047h.047c-.019-.162-.029-.314-.047-.466-.019-.01-.029-.029-.048-.038v-.275a.207.207,0,0,0-.038-.048c-.028-.285-.038-.323-.295-.4v-.162c.038-.01.076-.019.1-.029l.048-.048c.209-.019.428-.038.647-.048v.228c-.057.009-.1.019-.152.028-.01.124-.019.257-.038.38a.112.112,0,0,1,.047.048v.323c.019.01.029.029.047.038v.371c.019.009.029.028.048.048q.043.456.086.913l-.266.029c-.162-.133-.314-.266-.466-.39a.206.206,0,0,0-.038-.047l-.047-.047c-.124-.1-.247-.209-.371-.323-.019-.01-.029-.028-.048-.038-.124-.114-.238-.219-.361-.323l-.048-.048a.92.92,0,0,0-.323-.228v.323c.019.01.028.029.048.048v.228c.019.01.028.028.048.038.038.247.076.495.124.742a1.979,1.979,0,0,0,.247.038,1.415,1.415,0,0,0-.038.2l-.238.028c-.019.019-.038.029-.048.048-.162,0-.314.01-.475.01-.01-.067-.019-.124-.029-.19Zm2.529-.323c.01-.009.019-.028.038-.038.161-.1.161-.542.19-.742.01-.019.028-.028.038-.038.019-.209.029-.4.048-.6.019-.019.029-.038.047-.048.01-.181.029-.371.048-.552.01-.019.029-.028.038-.038.019-.114.038-.219.048-.333.019-.01.028-.029.048-.038h.1c.01-.019.028-.029.048-.048.028.019.057.029.085.048a.2.2,0,0,1,.047.038c.143.2.276.4.418.6a.163.163,0,0,0,.038.048c.152.209.3.428.456.637l.048.048c.028.047.067.095.1.142l.048.048a1.256,1.256,0,0,1,.133.181c.019.01.029.028.048.047l.19.028v.162c-.247.076-.495.143-.742.219l-.047.047h-.133a1.343,1.343,0,0,1-.048-.19.2.2,0,0,1,.048-.038.91.91,0,0,1,.1-.048v-.1a.2.2,0,0,1-.048-.038.816.816,0,0,1-.047-.1l-.048-.048c-.038-.057-.038-.057-.181-.086a.1.1,0,0,0-.048.038c-.1.019-.18.029-.276.048l-.047.048a2.293,2.293,0,0,0-.228.1c-.019.01-.029.028-.048.038v.371l.2.028v.162a2.2,2.2,0,0,1-.694.171v-.181Zm.542-1.008.047-.047v-.361a.114.114,0,0,1,.048-.048c.01-.067.01-.124.019-.181.37.5.37.5.39.59-.133.028-.276.067-.409.095H289.3l-.047-.047Z" transform="translate(-42.724 -25.902)" fill="#fff" fill-rule="evenodd"/>
    <path id="Path_110" data-name="Path 110" d="M288.584,393.183a.112.112,0,0,0-.048-.048v-.047a.207.207,0,0,0-.038-.047c-.352-1.169.209-1.749.523-2.843.01-.1.01-.209.028-.314l-.048-.047a.99.99,0,0,0-.085-.1c-.238-.01-.342-.048-.513.1a.114.114,0,0,0-.047.047c-.019.028-.028.057-.048.085h-.048a1.165,1.165,0,0,1,.371-.779.163.163,0,0,1,.047-.038,2.06,2.06,0,0,1,.96-.143l.047.047c.723.361.665.713.637,1.512a.1.1,0,0,0-.038.048,3.256,3.256,0,0,0-.352,2.7,2.245,2.245,0,0,0,1.35.637.882.882,0,0,0,.1.047h.143a.206.206,0,0,0,.038-.047c.123-.01.247-.028.371-.038.019-.019.028-.038.048-.047a.541.541,0,0,1,.133-.047c.019-.019.028-.038.047-.048a.92.92,0,0,1,.1-.048.1.1,0,0,1,.047-.038,1.3,1.3,0,0,0,.038-2.063.2.2,0,0,0-.038-.047c-.123-.114-.247-.219-.37-.323l-.048-.047c-.123-.124-.238-.247-.361-.362l-.047-.048c-.1-.1-.19-.218-.275-.323-.019-.019-.038-.029-.048-.048-.884-1.3-1.188-2.358-.085-3.66a.216.216,0,0,1,.038-.047l.047-.047a6.922,6.922,0,0,1,1.607-1.008c.01-.019.029-.028.038-.047.076-.01.152-.028.238-.047a.116.116,0,0,0,.047.047h.361c.01.019.029.029.047.047h.913l.047-.047c.181-.019.362-.047.552-.067l.028-.057c-.048-.123-.1-.257-.143-.38a1.861,1.861,0,0,0-.114.238.224.224,0,0,0-.047.038c-.038.057-.038.057-.143.1.047-.143.1-.276.143-.418a.2.2,0,0,1,.047-.038,1.434,1.434,0,0,1,.048-.19h-.143c-.019.019-.028.038-.048.048h-.085l-.228.6a.114.114,0,0,0-.047.047h-.1v-.1c.01-.019.028-.028.048-.048a1.313,1.313,0,0,1,.047-.18.115.115,0,0,1,.047-.047,1.666,1.666,0,0,1,.01-.219c-.076.029-.143.047-.209.067l-.085.2a.207.207,0,0,0-.038.047c-.028.085-.066.18-.1.276h-.133c.028-.1.057-.19.085-.276l.048-.047a.338.338,0,0,1,.038-.1,1.748,1.748,0,0,0-.219-.01.285.285,0,0,0-.048.067.111.111,0,0,0-.047.047c-.029.085-.057.18-.086.276h-.143l.143-.371c-.1.028-.2.057-.295.085-.038.076-.076.162-.124.238h-.038A.689.689,0,0,1,293,385.4a1.691,1.691,0,0,1,.085-.19h-.238c-.019.01-.029.028-.048.047a.215.215,0,0,0-.038.048,2.4,2.4,0,0,0-.1.228c-.019.01-.028.028-.048.038h-.085c.028-.085.057-.181.085-.266v-.048l-.238.029c-.076.171-.152.342-.219.523-.038.01-.076.019-.1.029a1.723,1.723,0,0,1,.247-.723,19.5,19.5,0,0,0,2.652-.5,2.2,2.2,0,0,0,1.188,1.787c-.01.038-.029.067-.038.1-1.711,1.388-1.036,2.481-.713,4.525a4.27,4.27,0,0,1-2.776,4.1c-.447.152-.884.3-1.331.466a5.54,5.54,0,0,1-2.757-1.3,1.925,1.925,0,0,1,.266-.761c-.066-.114-.143-.238-.209-.342Z" transform="translate(-50.896 -6.435)" fill="#212121" fill-rule="evenodd"/>
    <path id="Path_111" data-name="Path 111" d="M289.406,381.412c-.01-.114-.01-.228-.019-.333a6.6,6.6,0,0,1,5.067,0,1.124,1.124,0,0,1-.1.685c-1.065-.561-2.928-.38-4.088-.238-.276.067-.561.143-.837.209-.01-.1-.019-.219-.028-.323Z" transform="translate(-51.62 -3.829)" fill="#212121" fill-rule="evenodd"/>
    <path id="Path_112" data-name="Path 112" d="M291.865,397.016l.048-.048a1.266,1.266,0,0,1,.048-.18h-.133c-.066.18-.133.371-.19.551-.067-.009-.133-.028-.19-.038a1.322,1.322,0,0,1,.142-.561h-.133c-.076.162-.152.333-.219.494-.067-.028-.133-.057-.19-.076.029-.1.057-.19.086-.276a.116.116,0,0,1,.048-.048,1,1,0,0,1,.047-.18h-.143c-.048.133-.1.266-.133.409-.076-.019-.152-.029-.228-.048.009-.076.028-.152.038-.228.019-.019.038-.028.048-.048.019-.076.029-.152.047-.228-.219.066-.143.313-.3.4a.53.53,0,0,1-.124-.067,1.019,1.019,0,0,1,.114-.466H290.4a1,1,0,0,0-.047.181c-.019.009-.029.028-.048.047-.019.085-.019.085-.076.123a.751.751,0,0,0-.152-.076v-.1c.029-.1.067-.19.1-.276v-.047c0-.047,0-.047-.1-.047v.047c-.01.019-.028.028-.047.047-.01.057-.028.123-.038.19a.2.2,0,0,0-.048.038c-.067-.01-.124-.029-.181-.038.01-.1.029-.19.048-.285.01-.01.019-.029.038-.038,0-.057.009-.1.009-.152-.028-.009-.066-.028-.1-.038v.1c-.019.019-.038.029-.048.048-.038.076-.085.152-.114.228-.057-.038-.114-.067-.161-.1V396.1c.009-.019.028-.028.047-.048.038-.133.085-.275.133-.409a1.774,1.774,0,0,1,.456.314c.019.019.029.038.048.048a6.894,6.894,0,0,0,1.008.466.207.207,0,0,0,.048.038c.2.038.39.066.6.1l.047.048c.257-.019.513-.038.77-.048l.047-.047c.209-.048.428-.1.647-.133a.2.2,0,0,1,.038-.048,1.389,1.389,0,0,1,.19-.047.207.207,0,0,1,.038-.048c.048-.019.1-.029.143-.047l.048-.047c.057-.029.124-.057.18-.086l.047-.048c.029-.019.057-.028.086-.047a.113.113,0,0,0,.048-.048c.171-.162.342-.333.5-.5a.216.216,0,0,0,.047-.038.914.914,0,0,1,.048-.1c.01-.019.029-.029.047-.048l.086-.228.047-.047c.028-.152.057-.3.1-.456a.114.114,0,0,1,.048-.048c-.019-.257-.038-.523-.048-.78-.019-.019-.038-.029-.048-.048v-.086c-.019-.019-.029-.038-.048-.048-.076-.171-.152-.333-.228-.5-.01-.019-.028-.028-.047-.048a.975.975,0,0,1-.038-.1.205.205,0,0,1-.047-.038c-.076-.114-.152-.218-.228-.323l-.047-.048c-.1-.1-.19-.219-.276-.323-.019-.01-.028-.028-.047-.038-.2-.228-.76-.685-.827-.96.57-.019,1.141-.028,1.711-.038.01-.038.019-.076.029-.1l.047-.048c.048-.133.1-.276.143-.409a.116.116,0,0,1,.047-.048c.076-.219.152-.428.228-.637a.214.214,0,0,1,.038-.048v-.1h-2.053v.048c-.067.028-.067.028-.466.913a1.186,1.186,0,0,1-.542-.913l-.047-.048v-.323a.2.2,0,0,1-.048-.038c.029-.18.057-.352.076-.523.2-.01.561.085.836.1l.048.047h1.559c.01-.019.029-.028.047-.047.181-.019.361-.048.552-.067.028-.057.057-.114.085-.161l.048-.048c.028-.086.057-.181.1-.276.01-.019.029-.029.048-.047.029-.086.057-.181.086-.266a.113.113,0,0,1,.048-.047c.048-.114.095-.219.143-.323h.038a.867.867,0,0,1,.076.1c-.057.162-.114.333-.162.495l-.047.048c-.067.171-.124.342-.181.5l-.048.048c-.067.171-.123.342-.19.5-.01.019-.028.029-.038.048a1.062,1.062,0,0,0-.047.133c0,.048,0,.048.085.048v-.048c.057-.029.057-.029.1-.133l.047-.048a1.3,1.3,0,0,1,.048-.18.116.116,0,0,1,.048-.047c.152-.4.314-.8.475-1.188.171.171.162.266.067.5l-.047.048c-.01.057-.029.114-.038.181a.116.116,0,0,0-.048.048c-.028.085-.066.18-.1.275a.218.218,0,0,0-.038.048c-.143.342-.285.694-.418,1.046-.019.019-.028.038-.048.047a1.257,1.257,0,0,1-.048.181c-.01.019-.028.028-.038.048-.038.1-.067.19-.1.275l-.047.048c-.133.352-.275.7-.409,1.055a.116.116,0,0,0-.047.047c-.019.057-.028.114-.048.181l-.047.048c-.028.085-.057.18-.085.275a.115.115,0,0,0-.048.048v.181h.1c.01-.067.028-.124.038-.181l.047-.048c.133-.352.276-.7.418-1.055a.207.207,0,0,1,.038-.048,1.625,1.625,0,0,0,.048-.181c.019-.019.029-.038.047-.048.029-.1.057-.18.1-.276.01-.019.028-.028.038-.048.057-.133.114-.275.162-.409v.637c-.247.608-.5,1.226-.751,1.835-.019.019-.038.029-.047.048.019.048.047.086.067.133.247-.6.5-1.188.76-1.778h.086v.447c-.019.019-.029.038-.038.048-.143.352-.275.7-.418,1.055-.009.019-.028.029-.048.047-.028.1-.057.181-.085.276a.115.115,0,0,0-.048.047l-.029.228a.112.112,0,0,1,.048.047c.038-.1.076-.19.114-.276l.048-.047c.029-.1.067-.181.1-.276.009-.019.028-.028.047-.047.01-.057.028-.123.038-.18l.048-.048c.1-.247.209-.485.323-.732l.048.047a3.117,3.117,0,0,1-.371,1.378.2.2,0,0,1-.048.038c-.057.171-.114.333-.181.5-.009.019-.028.028-.048.048v.1a.112.112,0,0,1,.048.047c.067-.124.124-.247.181-.371.019-.019.038-.028.048-.048.1-.275.209-.551.323-.827a.205.205,0,0,1,.048-.038l.114-.228a1.085,1.085,0,0,1-.067.732.116.116,0,0,0-.047.047c-.067.162-.124.333-.181.495-.019.019-.038.028-.048.048-.067.171-.123.342-.19.5-.01.019-.028.028-.038.047a2.331,2.331,0,0,0-.1.276c-.019.009-.028.028-.047.047a1.21,1.21,0,0,1-.048.18c-.009.019-.028.029-.038.048a2.012,2.012,0,0,0-.047.228.116.116,0,0,0-.048.048,2.285,2.285,0,0,0-.1.228c-.019.009-.029.028-.047.048-.057.161-.124.333-.181.5l-.047.047a1.038,1.038,0,0,1-.466.628,4.1,4.1,0,0,1,.1-.4.117.117,0,0,1,.047-.048c-.01-.028-.019-.066-.028-.1-.181.228-.181.228-.209.323a.206.206,0,0,0-.038.047c-.1.181-.19.456-.456.418.009-.038.028-.067.038-.1.019-.01.028-.029.048-.038.066-.181.066-.181.047-.276a.113.113,0,0,0-.047.048c-.057.029-.057.029-.133.228a.2.2,0,0,0-.047.038c-.019.067-.028.124-.048.19-.019.01-.028.029-.048.048a.2.2,0,0,1-.047.038c-.18.076-.18.076-.257.057.01-.029.019-.067.028-.1s.029-.038.048-.048a2.323,2.323,0,0,1,.1-.275H293.1c-.009.057-.028.123-.038.18-.019.019-.038.029-.048.047-.1.219-.1.266-.323.371h-.048c.019-.067.029-.133.048-.19.009-.019.028-.029.047-.048.009-.057.028-.123.038-.18.019-.019.038-.028.048-.048v-.047h-.133a2.331,2.331,0,0,1-.1.275c-.01.019-.028.029-.038.048-.038.1-.067.19-.1.275-.228.067-.228.067-.314.057.01-.038.028-.067.038-.1a.213.213,0,0,1,.048-.038,1.137,1.137,0,0,1,.047-.19c.01-.019.029-.029.038-.048.019-.076.028-.152.047-.228h-.047c-.01.019-.029.029-.038.048a.306.306,0,0,0-.047.095.118.118,0,0,0-.048.048c-.028.086-.066.181-.1.276a.206.206,0,0,1-.048.038c-.01.067-.028.124-.038.181h-.276c.048-.133.1-.276.133-.409Zm2.89-1.093a.206.206,0,0,1,.038-.047,1.8,1.8,0,0,0,.048-.181c.019-.019.028-.038.047-.048.133-.352.275-.7.418-1.055a.2.2,0,0,1,.038-.047c.038-.1.067-.19.1-.276l.047-.047a1.306,1.306,0,0,1,.048-.181c.01-.019.029-.028.048-.048.086-.247.181-.485.276-.732.01-.019.029-.029.038-.048.019-.038.029-.086.047-.133h.048a2.592,2.592,0,0,1-.18,1.008.112.112,0,0,0-.047.047,5.493,5.493,0,0,1-1.027,1.968,1.085,1.085,0,0,1,.019-.18Zm1.322-6.968v-.1a.212.212,0,0,0,.047-.038c.162-.418.162-.418.238-.513h.038c.114.085.1.1.114.238-.133.133-.257.276-.39.409Z" transform="translate(-51.657 -8.443)" fill="#fff" fill-rule="evenodd"/>
    <path id="Path_113" data-name="Path 113" d="M296.326,406.326a.117.117,0,0,1,.048-.048c.133-.352.275-.7.409-1.055a.112.112,0,0,1,.047-.048c.028-.095.057-.181.1-.276l.047-.048c.01-.057.028-.114.038-.181a.112.112,0,0,0,.048-.047c.038-.1.086-.219.124-.333l.1-.029-.228.685-.048.047c-.01.057-.028.114-.038.181a.112.112,0,0,0-.047.048c-.038.1-.067.18-.1.275a.116.116,0,0,0-.047.047c-.124.323-.247.637-.361.96h-.143c.019-.067.029-.124.048-.181Z" transform="translate(-56.069 -19.143)" fill="#212121" fill-rule="evenodd"/>
    <path id="Path_114" data-name="Path 114" d="M298.254,404.954v.085c-.143.352-.276.7-.409,1.055l-.048.048c-.057.171-.124.333-.181.5a.116.116,0,0,0-.047.047c-.029.067-.057.124-.085.19h-.133c.742-1.749.742-1.749.818-1.977.086,0,.086,0,.086.047Z" transform="translate(-56.762 -19.559)" fill="#212121" fill-rule="evenodd"/>
    <path id="Path_115" data-name="Path 115" d="M295.819,404.541l.047-.048c.067-.171.124-.333.19-.5a.206.206,0,0,1,.038-.047c.076-.152.143-.3.209-.456l.048.047a3.022,3.022,0,0,1-.257.732.2.2,0,0,0-.038.047c-.066.161-.123.333-.19.5a.207.207,0,0,1-.047.038c-.133.352-.276.7-.409,1.055-.1-.019-.1-.019-.124-.076.171-.437.352-.865.533-1.293Z" transform="translate(-55.428 -18.641)" fill="#212121" fill-rule="evenodd"/>
    <path id="Path_116" data-name="Path 116" d="M298.676,407.352a.2.2,0,0,1,.038-.048c.038-.1.066-.18.1-.276.019-.009.028-.028.048-.047a1.3,1.3,0,0,1,.047-.18c.01-.019.029-.028.048-.048l.342-.827a.118.118,0,0,0,.048.047c-.009.076-.019.152-.028.238-.01.01-.028.019-.048.038-.133.352-.276.7-.409,1.055-.019.01-.028.029-.048.048a.426.426,0,0,0-.076.1h-.1a.342.342,0,0,1,.038-.1Z" transform="translate(-57.594 -20.217)" fill="#212121" fill-rule="evenodd"/>
    <path id="Path_117" data-name="Path 117" d="M294.659,404.5c.009-.019.028-.028.048-.047.009-.057.028-.123.038-.18.019-.019.028-.038.047-.048a2.33,2.33,0,0,1,.1-.276c.01-.019.029-.029.047-.048.029-.085.057-.181.1-.276l.038-.038c.019-.067.029-.133.048-.19.01-.019.029-.029.048-.048.028-.086.057-.181.085-.266l.048-.047c.029-.114.067-.219.095-.323.1.019.1.019.133.1a.212.212,0,0,0-.038.047c-.066.162-.123.333-.19.495-.01.019-.028.028-.048.048-.057.171-.114.342-.181.5-.009.019-.028.028-.038.048a2.4,2.4,0,0,0-.1.276.113.113,0,0,0-.047.048c-.067.162-.124.333-.18.5a.112.112,0,0,0-.048.047c-.067.152-.143.3-.209.456-.019-.019-.029-.038-.048-.048a2.992,2.992,0,0,1,.257-.732Z" transform="translate(-54.857 -18.138)" fill="#212121" fill-rule="evenodd"/>
    <path id="Path_118" data-name="Path 118" d="M293.957,403.261l.047-.048c.029-.1.057-.18.1-.275.009-.019.028-.029.038-.048.066-.171.123-.333.19-.5a.213.213,0,0,1,.047-.038l.085-.285c.019-.01.029-.029.047-.038v-.1a.675.675,0,0,1,.133.1l-.038.038c-.038.1-.067.19-.1.285-.019.01-.028.029-.047.038-.028.1-.057.19-.085.275-.019.019-.038.029-.047.048a1.3,1.3,0,0,0-.048.181c-.019.019-.038.028-.048.048-.029.1-.067.18-.1.275-.01.019-.029.029-.038.048a2.331,2.331,0,0,0-.1.275c-.019.01-.028.029-.047.047a1.7,1.7,0,0,1-.048.181.2.2,0,0,0-.038.047c-.038.085-.067.18-.1.266l-.048.048c-.047.143-.1.275-.133.418-.1-.029-.1-.029-.133-.086.171-.4.333-.8.494-1.2Z" transform="translate(-54.25 -17.636)" fill="#212121" fill-rule="evenodd"/>
    <path id="Path_119" data-name="Path 119" d="M293.047,403.129l.048-.047c.019-.067.029-.124.048-.181.019-.019.029-.038.048-.047.029-.1.057-.18.1-.276l.047-.047c.2-.5.409-1.008.618-1.511h.067c.01.019.029.028.048.047a.863.863,0,0,0-.048.143.214.214,0,0,0-.048.038c-.143.352-.276.7-.409,1.055-.019.019-.038.028-.048.048a1.256,1.256,0,0,0-.048.18l-.047.047c-.029.1-.057.181-.086.276a.116.116,0,0,0-.047.047,2.431,2.431,0,0,0-.1.276c-.019.009-.028.028-.048.048-.019.057-.028.114-.048.18l-.048.047c-.019.038-.038.086-.067.133a.888.888,0,0,1,.067-.456Z" transform="translate(-53.938 -17.047)" fill="#212121" fill-rule="evenodd"/>
    <path id="Path_120" data-name="Path 120" d="M293.094,401.425c.019-.019.029-.038.048-.047v-.1c.019-.01.029-.029.048-.038a2.428,2.428,0,0,1,.1-.276.116.116,0,0,1,.047-.048,1.342,1.342,0,0,1,.038-.19c.019-.01.028-.029.048-.038a1.4,1.4,0,0,1,.047-.19.207.207,0,0,1,.048-.038c.067-.209.133-.4.209-.6.038.048.038.048.067.18-.019.019-.038.028-.047.048-.219.533-.428,1.074-.647,1.607l-.048.048c-.019.057-.038.114-.067.181.038-.171.076-.342.114-.5Z" transform="translate(-53.938 -16.302)" fill="#212121" fill-rule="evenodd"/>
    <path id="Path_121" data-name="Path 121" d="M303.151,397.934a.2.2,0,0,1,.048-.038v-.047a.112.112,0,0,1,.047-.047h.085v.095a.206.206,0,0,1-.048.038c-.028.095-.057.181-.085.276-.019.019-.038.028-.048.047a1.25,1.25,0,0,0-.048.18l-.047.048c-.029.1-.057.181-.086.276h-.1c.085-.276.181-.551.276-.827Z" transform="translate(-60.331 -14.967)" fill="#212121" fill-rule="evenodd"/>
    <path id="Path_122" data-name="Path 122" d="M298.39,392.636c.019-.019.029-.038.048-.048.123-.295.247-.58.37-.875h.038a.87.87,0,0,1,.048.1c-.019.01-.029.028-.048.048-.009.057-.028.124-.038.18-.019.019-.038.029-.047.047-.114.276-.219.552-.323.827h-.1c.019-.1.038-.19.047-.275Z" transform="translate(-57.403 -11.034)" fill="#212121" fill-rule="evenodd"/>
    <path id="Path_123" data-name="Path 123" d="M297.916,391.928c.01-.019.028-.028.048-.047.048-.133.085-.275.133-.409h.133c-.114.276-.228.542-.342.827l.029-.371Z" transform="translate(-57.108 -10.877)" fill="#212121" fill-rule="evenodd"/>
    <path id="Path_124" data-name="Path 124" d="M300.3,392.17c.162-.409.162-.409.228-.456.01.019.029.028.038.048-.057.133-.114.275-.181.409Z" transform="translate(-58.668 -11.022)" fill="#212121" fill-rule="evenodd"/>
    <path id="Path_125" data-name="Path 125" d="M301.613,391.848v.047c-.028.1-.057.18-.085.275a.118.118,0,0,0-.048.047.206.206,0,0,0-.047.038h-.048c-.01-.01-.029-.019-.038-.029.048-.133.085-.257.133-.38Z" transform="translate(-59.344 -11.108)" fill="#212121" fill-rule="evenodd"/>
    <path id="Path_126" data-name="Path 126" d="M302.473,392.17a1,1,0,0,0,.047-.181c.019-.009.029-.028.048-.038a1.712,1.712,0,0,0,.076-.2.531.531,0,0,1,.114-.038,1.789,1.789,0,0,0-.047.238.224.224,0,0,0-.048.038c-.038.067-.066.124-.095.181Z" transform="translate(-60.071 -11.022)" fill="#212121" fill-rule="evenodd"/>
    <path id="Path_127" data-name="Path 127" d="M303.653,392.17c.028-.1.057-.209.1-.314a.206.206,0,0,1,.038-.048v-.1h.143c-.048.133-.1.275-.143.418l-.038.038Z" transform="translate(-60.834 -11.022)" fill="#212121" fill-rule="evenodd"/>
    <path id="Path_128" data-name="Path 128" d="M304.754,391.933l.048-.048c.028-.1.057-.209.1-.313.057-.01.114-.01.162-.019-.048.142-.1.285-.162.428a.118.118,0,0,0-.047.048.205.205,0,0,0-.048.038h-.048c-.038-.029-.038-.029,0-.133Z" transform="translate(-61.527 -10.918)" fill="#212121" fill-rule="evenodd"/>
    <path id="Path_129" data-name="Path 129" d="M302.42,397.9a.214.214,0,0,0-.048.038c-.066.171-.123.342-.181.5h-.1a2.03,2.03,0,0,1,.219-.608c.029-.01.067-.019.1-.028v.095Z" transform="translate(-59.828 -14.967)" fill="#212121" fill-rule="evenodd"/>
    <path id="Path_130" data-name="Path 130" d="M301.32,398.076v-.048a1.682,1.682,0,0,0,.076-.2l.114-.028c-.047.123-.085.237-.124.361a.519.519,0,0,0-.066-.086Z" transform="translate(-59.326 -14.966)" fill="#212121" fill-rule="evenodd"/>
    <path id="Path_131" data-name="Path 131" d="M300.676,397.849V397.8h.048v.047Z" transform="translate(-58.91 -14.966)" fill="#212121" fill-rule="evenodd"/>
    <path id="Path_132" data-name="Path 132" d="M294.2,381.884c-.01-.143-.038-.21.029-.333h.161a2.324,2.324,0,0,0,.019.247c-.057.047-.057.047-.209.086Zm-2.291-.276c-.161-.352-.114-.513.238-.513a.647.647,0,0,1,.057.38.427.427,0,0,1-.295.133Zm-2.471.143a1.7,1.7,0,0,1,.076-.2c.209-.019.162.133.171.285a.884.884,0,0,1-.086.1c-.057-.057-.114-.124-.161-.181Z" transform="translate(-51.655 -4.168)" fill="#fff" fill-rule="evenodd"/>
    <path id="Path_133" data-name="Path 133" d="M287.753,377.08c.019-.4.038-.561-.323-.76a.693.693,0,0,1-.114-.39,2.1,2.1,0,0,1-.342-.551,1.012,1.012,0,0,1,.96.3c.238,0,.371-.1.6-.1.124.123.076.5.076.675.314.038.143-.495.1-.647a.671.671,0,0,1,.371-.076c.123.123.1.494.123.675.067,0,.133-.01.2-.01v-.637a.675.675,0,0,0,.466-.133c.01-.133.01-.257.019-.39.038-.009.067-.019.1-.028.219-.523.608-.485.827,0,.028.01.066.019.1.028,0,.124,0,.257.009.38a1,1,0,0,0,.495.171c-.01.2-.01.4-.01.608.057.01.114.01.181.019.228-.276-.181-.96.513-.58.028.219-.143.4-.019.618h.114c.01-.951.028-.58.675-.58a.97.97,0,0,1,.96-.3,1.236,1.236,0,0,1-.295.5c-.057.447-.314.437-.5.827.009.124.009.247.019.371a.882.882,0,0,0-.152-.038c-.019-.076-.048-.143-.066-.209-.114,0-.219,0-.333-.01a4.636,4.636,0,0,0-1.825-.181c-.285-.228-.266-.238-.551,0-.58,0-1.122.1-1.7.1a.986.986,0,0,1-.5.114c-.01.057-.019.124-.029.19a.717.717,0,0,0-.152.038Z" transform="translate(-50.063)" fill="#212121" fill-rule="evenodd"/>
    <path id="Path_134" data-name="Path 134" d="M291.7,384.244a9.416,9.416,0,0,1-1.787-.323.474.474,0,0,1-.019-.114c.238-.314,1.017-.323,1.35-.371.979,0,2.567-.209,3.441.333v.114a7.186,7.186,0,0,1-2.985.361Z" transform="translate(-51.949 -5.653)" fill="#212121" fill-rule="evenodd"/>
    <path id="Path_135" data-name="Path 135" d="M283.64,384.608a2.162,2.162,0,0,1-1.2,1.787v.095a2.344,2.344,0,0,1,1.217,2.243c-.133.675-.275,1.341-.409,2.015v1.188a4.142,4.142,0,0,0,1.3,2.158v-.047L284.6,394v-.047a.206.206,0,0,1,.048-.038v-.095a.112.112,0,0,1,.047-.048v-.048a.1.1,0,0,1,.048-.038v-.095a.214.214,0,0,1,.038-.048v-.133a.2.2,0,0,0-.038-.047v-.047c-.019-.019-.038-.029-.048-.048a.111.111,0,0,1-.047-.047v-.038l-.048-.048v-.047c-.019-.019-.028-.038-.048-.047v-.1c-.019-.01-.029-.029-.047-.048v-.133c-.01-.019-.029-.028-.038-.047v-.133a1.185,1.185,0,0,1-.047-.133v-.285a1.787,1.787,0,0,1,.047-.181v-.18a.206.206,0,0,1,.038-.048v-.095c.019-.029.028-.057.047-.086v-.1l.048-.047v-.085a.112.112,0,0,1,.048-.047v-.048c.01-.019.028-.029.047-.047v-.038a.115.115,0,0,1,.048-.047v-.047a.2.2,0,0,1,.038-.048v-.047c.019-.019.038-.028.048-.048v-.047c.019-.01.029-.029.048-.038V390.8l.047-.047v-.1a.2.2,0,0,1,.048-.038v-.048a.2.2,0,0,1,.038-.047v-.047c.019-.029.028-.057.047-.086v-.047a.911.911,0,0,1,.048-.1v-.361c-.019-.019-.028-.038-.048-.047h-.18c-.019.01-.029.028-.048.047a.274.274,0,0,0-.085.085c-.019.019-.038.029-.048.048v.047a.114.114,0,0,0-.047.048v.085c-.019.019-.038.028-.048.047s-.028.029-.048.048-.029.029-.047.047h-.038l-.047-.047a.861.861,0,0,1-.048-.143v-.456a.907.907,0,0,1,.048-.1v-.086c.01-.019.029-.028.047-.048v-.047l.038-.038c.019-.019.028-.038.047-.048v-.047c.019-.019.028-.038.048-.047a.112.112,0,0,1,.048-.048.1.1,0,0,1,.047-.038.115.115,0,0,1,.048-.047.214.214,0,0,1,.038-.048l.048-.047h.048l.047-.047h.048c.009-.019.028-.028.038-.048h.047c.019-.01.028-.028.048-.047h.1a1,1,0,0,1,.1-.038h.181v-.048h.133v.048h.181a.994.994,0,0,0,.1.038h.1a.116.116,0,0,0,.048.047h.038c.019.019.038.028.048.048h.048c.009.019.028.028.047.047h.038a.118.118,0,0,1,.048.047c.019.01.029.029.048.048a1.874,1.874,0,0,1,.143.133h.047v-.086l-.047-.047v-.1a.862.862,0,0,1-.048-.143v-.133h-.047v-.6h.047V388a.568.568,0,0,1,.048-.133v-.1a.115.115,0,0,1,.047-.047v-.048a.168.168,0,0,1,.038-.047v-.086c.019-.019.028-.038.048-.047v-.047c.01-.019.028-.028.047-.048v-.038a.113.113,0,0,1,.048-.047v-.048a.114.114,0,0,1,.048-.047.206.206,0,0,1,.038-.048v-.047c.019-.019.038-.029.047-.038s.029-.038.048-.048v-.047l.048-.048c.009-.019.028-.028.047-.048a.214.214,0,0,0,.038-.047c.019-.01.028-.028.048-.038a.809.809,0,0,1,.048-.1c.01-.019.028-.029.047-.047l.048-.048a.223.223,0,0,1,.047-.038.117.117,0,0,1,.048-.047.227.227,0,0,1,.038-.048.462.462,0,0,1,.1-.047c.009-.019.028-.028.047-.047s.028-.029.038-.048a.116.116,0,0,0,.048-.047c.019-.01.029-.029.047-.038h.048a.117.117,0,0,1,.048-.047c.01-.019.029-.028.047-.048a.2.2,0,0,0,.038-.047c.019-.01.028-.028.048-.038v-.047a.114.114,0,0,1,.048-.048v-.047a.114.114,0,0,1,.047-.047v-.038a.116.116,0,0,1,.048-.048v-.095c.01-.019.028-.028.048-.048v-.047a.206.206,0,0,0,.038-.047v-.085c.019-.019.038-.029.048-.048v-.048c.019-.009.029-.028.048-.038v-.1a.112.112,0,0,1,.047-.047A24.8,24.8,0,0,1,283.64,384.608Zm2.747,2.338a.98.98,0,0,0-.048.095c-.019.01-.028.029-.048.048l-.085.086a.112.112,0,0,0-.047.048h-.133v-.048c.01-.019.029-.029.038-.047v-.086a.212.212,0,0,0-.038-.047v-.048c-.019-.019-.038-.028-.048-.048a.113.113,0,0,1-.047-.047h-.048v-.038h-.143v.038a.38.38,0,0,1-.086.047l-.047.048v.048c-.019.01-.028.029-.048.047v.048c-.01.01-.028.019-.048.038v.047a.114.114,0,0,1,.048.048.432.432,0,0,1,.1.047l.048.048v.133c-.019.019-.038.029-.048.047s-.028.029-.047.047v.038c-.048,0-.048,0-.048.095h.048l.047.048c.086-.019.086-.019.133-.1.019-.01.028-.029.047-.047h.048a.116.116,0,0,0,.048.047v.047a.831.831,0,0,0-.048.143v.048a.2.2,0,0,0-.048.038l-.047.047h-.314v.1a.114.114,0,0,0-.048.047v.085c-.019.019-.038.029-.048.047v.048a.369.369,0,0,0-.047.086v.047a.162.162,0,0,0-.038.047v.047a.116.116,0,0,0-.047.047.406.406,0,0,0-.048.086l-.048.047a.114.114,0,0,1-.047-.047c-.019-.009-.028-.028-.048-.038s-.029-.038-.047-.048v-.047a.218.218,0,0,0-.038-.047v-.047a.371.371,0,0,1-.048-.086v-.047c-.019-.019-.029-.038-.047-.048v-.095c-.019-.01-.029-.028-.048-.038V388a.112.112,0,0,0-.048-.048H284.5c-.01-.019-.029-.029-.038-.047a.215.215,0,0,1-.047-.038.937.937,0,0,1-.048-.1v-.19h.1v.047c.01.019.029.028.038.047l.047.048c.038-.01.067-.028.1-.038a.461.461,0,0,1,.038-.1.206.206,0,0,1-.047-.038V387.5c-.019-.019-.038-.028-.048-.047v-.133a628.264,628.264,0,0,0,.143-.143v-.133l-.048-.047c-.019-.019-.038-.028-.047-.048s-.038-.028-.048-.048-.028-.028-.048-.047H284.5c0-.038,0-.038-.086-.038v.038c-.1.028-.1.028-.143.1-.01.019-.028.029-.048.048v.133c.019.019.038.028.048.047v.048h-.133l-.048-.048h-.047c-.01-.019-.029-.029-.038-.047s-.038-.029-.048-.038v-.048l-.047-.047v-.323l.047-.048a.4.4,0,0,1,.048-.085.216.216,0,0,1,.038-.048c.019-.019.028-.038.047-.047h.048c.009-.019.028-.028.048-.047h.228c.029.019.057.028.086.047s.028.029.047.047h.048l.048.048.047.047a.2.2,0,0,0,.048.038.208.208,0,0,0,.038.048h.048v-.637a.873.873,0,0,1,.048-.1v-.086a.849.849,0,0,1,.047-.1v-.047a.432.432,0,0,1,.048-.1v-.047l.038-.038v-.047l.047-.048v-.048c.019-.009.028-.028.048-.038V385.3h.1a.769.769,0,0,0,.048.133.937.937,0,0,0,.047.1v.038a.1.1,0,0,0,.038.047v.047a.786.786,0,0,0,.047.1v.047a.384.384,0,0,0,.048.086v.095a.546.546,0,0,0,.048.133v.5c-.01.038-.019.067-.028.1a.34.34,0,0,0,.066-.1.2.2,0,0,0,.048-.038.463.463,0,0,1,.1-.047.118.118,0,0,1,.048-.048.214.214,0,0,1,.038-.047h.048a.875.875,0,0,1,.1-.047h.181a.911.911,0,0,1,.1.047l.047.047a.226.226,0,0,1,.038.048.117.117,0,0,1,.048.047c.019.01.029.029.048.038.019.048.029.1.048.143Z" transform="translate(-47.133 -6.435)" fill="#212121" fill-rule="evenodd"/>
    <path id="Path_136" data-name="Path 136" d="M307.721,391.909a.666.666,0,0,1-.067-.361c.162-.152.323-.295.485-.437a2.573,2.573,0,0,0,1.245-.837c.19-.931-.751-1.35.171-2.1.19-.3.218-.352.561-.465,0-.076-.01-.162-.01-.238a3.307,3.307,0,0,1-1.882-.437c-.475-.542-.618-1.226-1.416-1.169-.143.437-.475,1.35-.114,1.74,0,.371.048.5.028.789a.706.706,0,0,1-.418.1c-.323-.3-.19-1.055-.114-1.435.009-.551.028-1.1.048-1.654.342-.685,1.264.019,1.264-.742-.275-.085-.3-.893-.447-1.179-.076-1.093-.456-.8-1.388-1.264h-.875a.693.693,0,0,1-.152-.542,7.706,7.706,0,0,1,1.112.219,14.38,14.38,0,0,0,1.749.561,12.939,12.939,0,0,0,.637,1.435,2.665,2.665,0,0,0,2.205-.675l.057-.171-.057-.085c-.352-.019-.6.58-.913.048-.162-.057-.314-.114-.475-.171,0-.171-.01-.342-.01-.513.532-.124.647-.162.875-.647.228-.066.466-.133.694-.19a2.151,2.151,0,0,1,1.283-.475c-.019.219-.067.314-.067.457.114.1.228.2.342.295.1,0,.143-.047.228-.047.085.076.057.152.057.266a1.737,1.737,0,0,0-.162.114c-.01.1-.01.1.038.152.057-.066.057-.066.209-.1a2.922,2.922,0,0,1-.019.4h.162a.975.975,0,0,1-.1.57,1.445,1.445,0,0,0,.124.114.568.568,0,0,1-.152.333c-.085.58-.085.684-.58.95a.693.693,0,0,0,.1.475l-.371-.029c.057.057.057.057.1.209h-.19a2.342,2.342,0,0,1,.095.228c-.1-.019-.2-.048-.295-.067-.067.057-.067.057-.067.171-.1.01-.218.019-.323.038a1.046,1.046,0,0,0,.066.152c-.133.1-.133.1-.161.209h-.228c.285.4.723.447,1.112.723.342.647.8-.114,1.417.314.085.133.162.257.247.39.314.009.39.057.542-.238,0-.513-.114-.78-.7-.685,0-.1.01-.218.019-.323-.057-.057-.475-.247-.628-.352a.806.806,0,0,1-.048-.894.706.706,0,0,1,.152-.038c.01.038.019.066.028.1.048,0,.1.009.152.009.18-.247.257-.314.237-.627h-.209c-.028.1-.047.19-.076.285-.295-.1-.143-.39-.01-.561a.784.784,0,0,0,.532-.095c.5.209.475.532.523,1.036h.162a2.355,2.355,0,0,1,.076-.238c.057.038.124.076.19.124.019.361-.143.361-.466.466v.143a.437.437,0,0,1,.3.285c.085.019.171.048.257.066.038.143.067.285.1.428a.9.9,0,0,1-.57,1.4,1.3,1.3,0,0,1-1.093-.447c-.9-.029-.5.931-.219,1.426.409.228.808-.01,1.179.266.019.409-.276.608-.4.97,0,.39.1.741.086,1.112a.337.337,0,0,0-.1.038c.038.618-.019.684-.6.713-.238-.133-.152-.39-.152-.637.057-.01.1-.019.152-.028a2.615,2.615,0,0,0,.181-1.835c-.295-.028-.6.067-.913.067-.656-.333-1.065-.694-1.844-.4a6.752,6.752,0,0,0-.152.97c.162.323.228.428-.114.665-.57.228-1.027.352-1.093.989-.276.028-.361.067-.456.323a2.5,2.5,0,0,1-.694.085Z" transform="translate(-61.483 -4.115)" fill="#212121" fill-rule="evenodd"/>
    <path id="Path_137" data-name="Path 137" d="M266.851,391.909c-.1-.029-.19-.057-.275-.085-.1-.276-.181-.295-.466-.323-.038-.713-.713-.827-1.293-1.131-.1-.19,0-.342.086-.523a5.2,5.2,0,0,0-.152-.97c-.143-.057-.143-.057-.922-.1a1.737,1.737,0,0,1-1.654.418,1.2,1.2,0,0,0-.18.019c-.152.485-.162,1.569.333,1.863.01.59.029.637-.561.637a.983.983,0,0,1-.19-.713.4.4,0,0,0-.1-.038,4.474,4.474,0,0,0-.01-1.378,1.266,1.266,0,0,1-.323-.694c.409-.314.9.038,1.265-.352.228-.58.6-1.359-.285-1.359-.818.97-2.415.1-1.673-.941.038-.162.076-.314.123-.456.1-.019.209-.038.314-.047.019-.076.029-.152.048-.228a.3.3,0,0,0,.228-.114c-.228-.1-.884-.466-.323-.665.029.086.067.181.1.276h.181c.019-.6-.038-.78.485-1.074.162.123.323.085.523.085.143.181.295.466,0,.57-.028-.1-.057-.19-.076-.285h-.209c-.01.313.038.589.38.627a.855.855,0,0,1,.1-.085.321.321,0,0,1,.095.01c.352.7-.086.96-.665,1.236.009.114.009.219.019.333-.542-.028-.713.133-.713.685.1.295.238.257.523.257.418-.656.685-.656,1.426-.418.143-.1.143-.1.342-.342a8.7,8.7,0,0,1,.989-.5,1.213,1.213,0,0,1,.048-.181h-.238c-.028-.114-.076-.133-.18-.209a1.32,1.32,0,0,1,.1-.152c-.114-.019-.228-.028-.333-.038V385.4c-.123,0-.238,0-.361.01a2.273,2.273,0,0,0,.1-.228h-.181c.019-.133.019-.133.076-.2-.1.01-.209.01-.3.019.029-.2.152-.295.057-.475-.475-.266-.532-.418-.589-.95-.133-.2-.133-.2-.152-.333l.114-.114a1.385,1.385,0,0,1-.085-.57h.162c-.038-.3-.038-.3-.01-.4.076.019.152.038.238.057a.4.4,0,0,1,.009-.1c-.1-.1-.275-.219-.123-.38.1-.01.143.038.238.038a.9.9,0,0,1,.371-.257c-.038-.162-.067-.333-.1-.495a2.109,2.109,0,0,1,1.236.428c.247.085.494.162.741.238.067.124.133.257.2.38.532.361.808.01.666.78-.162.057-.314.114-.475.171-.352.513-.542-.067-.913-.048,0,.085-.01.161-.01.247a2.6,2.6,0,0,0,2.224.684,4.582,4.582,0,0,1,.428-.827,1.362,1.362,0,0,1,.285-.656,11.681,11.681,0,0,1,2.861-.713c-.162.456-.162.456-.228.513-.295,0-.58.01-.875.01-.485.238-1.131.238-1.35.76-.038.485-.2.884-.276,1.369-.038.085-.076.161-.1.238-.038.01-.067.028-.1.038-.01.143-.038.209.038.333.57.114.9-.047,1.227.447.01.533.028,1.065.047,1.607a1.887,1.887,0,0,1-.114,1.473.612.612,0,0,1-.428-.095,5.441,5.441,0,0,0,.029-.789c.361-.352.048-1.3-.1-1.7-.523-.3-.77.3-.989.646-.77.865-1.179.855-2.32.922v.276c.314.019.361.076.485.361.162.152.323.295.495.447,0,.171,0,.342.01.523-.485,1.065-.295,1.654.988,2.034.228.2.627.418.418.761-.143.009-.285.028-.418.038Z" transform="translate(-32.804 -4.115)" fill="#212121" fill-rule="evenodd"/>
    <path id="Path_138" data-name="Path 138" d="M293.51,377.561a.353.353,0,0,1-.01-.1l.143-.028v.133Zm-.646,0c-.01-.038-.029-.085-.038-.133.047,0,.1-.01.143-.01.01.047.028.1.038.142Zm-.818,0c-.076-.085-.076-.085-.076-.18.057-.057.057-.057.162-.067.057.057.057.057.057.219l-.143.028Zm-.827,0c-.019-.038-.029-.085-.047-.133.047,0,.1-.01.152-.01a.789.789,0,0,0,.038.142Zm-.637,0a.546.546,0,0,1-.047-.133h.181v.133Zm1.873.513c-.019-.047-.029-.095-.047-.143.1-.029.218-.057.323-.085-.1.142-.1.18-.275.228Zm-.865,0a.318.318,0,0,1-.114-.276.433.433,0,0,0,.295.133c-.01.028-.029.067-.038.1a.786.786,0,0,0-.143.038Zm2.795.038c-.01-.057-.019-.123-.028-.18.066-.076.114-.057.219-.057v.209c-.067.01-.133.019-.19.028Zm-4.772,0c-.01-.076-.029-.152-.038-.228h.275a1.527,1.527,0,0,0-.038.2l-.2.028Z" transform="translate(-51.742 -1.727)" fill="#fff" fill-rule="evenodd"/>
  </g>
</svg>
