<svg xmlns="http://www.w3.org/2000/svg" width="87" height="12.586" viewBox="0 0 87 12.586">
  <g id="Group_1" data-name="Group 1" transform="translate(-1.5 -110.9)">
    <path id="Path_1" data-name="Path 1" d="M8.97,117.406l.2.02c.778.041,1.044.184,1.126.266.061.061.225.287.225,1.105v2.8a.37.37,0,0,1-.082.287,1.949,1.949,0,0,1-.7.307,5.166,5.166,0,0,1-1.494.246,3.911,3.911,0,0,1-3.008-1.31,5.149,5.149,0,0,1-1.228-3.663,5.658,5.658,0,0,1,1.228-4.093,3.882,3.882,0,0,1,2.824-1.228,3.391,3.391,0,0,1,2.558,1.023,6.705,6.705,0,0,1,1.085,1.842l.061.123h.757L12.388,111h-.737l-.061.123a.93.93,0,0,1-.225.348c-.041.041-.143.082-.389.082a7.075,7.075,0,0,1-1.085-.266A7.87,7.87,0,0,0,7.824,111a6.02,6.02,0,0,0-4.707,2.006A6.421,6.421,0,0,0,1.5,117.365a5.773,5.773,0,0,0,2.026,4.625,6.763,6.763,0,0,0,4.5,1.555,9.309,9.309,0,0,0,2.988-.532c1.371-.471,1.658-.757,1.658-1.023v-3.479a1.22,1.22,0,0,1,.287-.962,1.459,1.459,0,0,1,.757-.164l.2-.02v-.737H8.97Z" transform="translate(0 -0.08)" fill="#2c2c2c"/>
    <path id="Path_2" data-name="Path 2" d="M112.2,112.857l.184.02a1.924,1.924,0,0,1,1.167.389c.1.123.287.471.287,1.658v4.584a5.459,5.459,0,0,1-.389,2.394,2.725,2.725,0,0,1-2.722,1.33,2.477,2.477,0,0,1-2.476-1.289,4.762,4.762,0,0,1-.348-2.067v-5.649c0-.757.143-1,.225-1.085s.368-.225,1.187-.287l.2-.02V112.1H104.1v.737l.2.02c.8.061,1.085.2,1.167.287s.225.327.225,1.085v5.505a5.617,5.617,0,0,0,.594,2.742c.716,1.31,2.088,1.965,4.073,1.965,2.006,0,3.377-.675,4.114-2.006a6.213,6.213,0,0,0,.594-2.947V114.9c0-1.146.164-1.514.266-1.637.123-.143.43-.327,1.207-.409l.184-.02V112.1h-4.5l-.02.757Z" transform="translate(-81.602 -0.954)" fill="#2c2c2c"/>
    <path id="Path_3" data-name="Path 3" d="M217.485,120.921a3.456,3.456,0,0,1-1.433,1.8,6.545,6.545,0,0,1-2.558.368,10.281,10.281,0,0,1-1.924-.082c-.041-.02-.184-.041-.184-.409v-4.155H213.9c.9,0,1.187.164,1.269.266a2.48,2.48,0,0,1,.45,1.248l.041.164h.8v-4.5h-.8l-.041.164a2.48,2.48,0,0,1-.45,1.248c-.082.1-.389.266-1.289.266h-2.517v-3.725a.717.717,0,0,1,.041-.327.655.655,0,0,1,.307-.041h2.394c1.228,0,1.7.164,1.862.307a2.193,2.193,0,0,1,.594,1.371l.041.164h.839l-.061-2.947H207.6v.737l.2.02c.778.061,1.044.2,1.126.287s.225.327.225,1.085v7.838c0,.8-.143,1.023-.2,1.085-.082.082-.348.2-1.146.307l-.184.02v.737h9.905l.921-3.4h-.9Z" transform="translate(-163.92 -0.954)" fill="#2c2c2c"/>
    <path id="Path_4" data-name="Path 4" d="M308.249,116.405l-1.555-.962a5.555,5.555,0,0,1-1.228-.982,1.5,1.5,0,0,1-.368-1.023,1.213,1.213,0,0,1,.45-1.023,1.83,1.83,0,0,1,1.126-.389,3,3,0,0,1,1.76.634,3.685,3.685,0,0,1,1.289,2.251l.041.164h.819l-.43-4.175h-.716l-.041.164a.8.8,0,0,1-.143.348.432.432,0,0,1-.287.082,8.5,8.5,0,0,1-.9-.287,4.829,4.829,0,0,0-1.514-.307,3.463,3.463,0,0,0-2.5.941,3.224,3.224,0,0,0-.941,2.374,2.927,2.927,0,0,0,.8,1.985,5.285,5.285,0,0,0,1.126.9l1.494.941a10.163,10.163,0,0,1,1.658,1.187,1.9,1.9,0,0,1,.553,1.351,1.725,1.725,0,0,1-.532,1.33,1.894,1.894,0,0,1-1.31.491,2.983,2.983,0,0,1-2.435-1.167,6.069,6.069,0,0,1-1-1.821l-.061-.143h-.8l.594,4.175h.757l.02-.184a.9.9,0,0,1,.123-.327c.041-.061.1-.082.225-.082a9.441,9.441,0,0,1,.962.307,5.665,5.665,0,0,0,1.781.327,4.04,4.04,0,0,0,2.8-.982,3.21,3.21,0,0,0,1.126-2.476,3.023,3.023,0,0,0-.634-1.924A8.61,8.61,0,0,0,308.249,116.405Z" transform="translate(-239.478)" fill="#2c2c2c"/>
    <path id="Path_5" data-name="Path 5" d="M393.357,118.1a8.61,8.61,0,0,0-2.108-1.7l-1.555-.962a5.555,5.555,0,0,1-1.228-.982,1.5,1.5,0,0,1-.368-1.023,1.213,1.213,0,0,1,.45-1.023,1.83,1.83,0,0,1,1.126-.389,3,3,0,0,1,1.76.634,3.685,3.685,0,0,1,1.289,2.251l.041.164h.819l-.43-4.175h-.716l-.041.164a.8.8,0,0,1-.143.348.432.432,0,0,1-.287.082,8.5,8.5,0,0,1-.9-.287,4.829,4.829,0,0,0-1.514-.307,3.463,3.463,0,0,0-2.5.941,3.224,3.224,0,0,0-.941,2.374,2.927,2.927,0,0,0,.8,1.985,5.285,5.285,0,0,0,1.126.9l1.494.941a10.163,10.163,0,0,1,1.658,1.187,1.9,1.9,0,0,1,.553,1.351,1.725,1.725,0,0,1-.532,1.33,1.894,1.894,0,0,1-1.31.491,2.983,2.983,0,0,1-2.435-1.167,6.069,6.069,0,0,1-1-1.821l-.061-.143h-.8l.594,4.175h.757l.02-.184a.9.9,0,0,1,.123-.327c.02-.061.1-.082.225-.082a9.441,9.441,0,0,1,.962.307,5.665,5.665,0,0,0,1.781.327,4.04,4.04,0,0,0,2.8-.982,3.21,3.21,0,0,0,1.126-2.476A3.023,3.023,0,0,0,393.357,118.1Z" transform="translate(-305.491)" fill="#2c2c2c"/>
  </g>
</svg>
