<svg xmlns="http://www.w3.org/2000/svg" width="87" height="14.263" viewBox="0 0 87 14.263">
  <g id="Group_18" data-name="Group 18" transform="translate(-205.252 -406.164)">
    <path id="Path_87" data-name="Path 87" d="M286.125,409.245l.131,2.357h-.263a2.367,2.367,0,0,0-.416-1.118,1.347,1.347,0,0,0-.658-.515,3.181,3.181,0,0,0-.965-.11h-3.607v4.133h3.278c.932,0,1.4-.526,1.4-1.557h.274v3.76h-.274a1.612,1.612,0,0,0-.373-1.271,1.633,1.633,0,0,0-1.1-.318h-3.212v3.881a.9.9,0,0,0,.187.68,1,1,0,0,0,.679.164h2.741a2.7,2.7,0,0,0,1.666-.439c.395-.285.416-.833.822-1.622h.3l-.483,2.675h-9.132v-.285a2.09,2.09,0,0,0,1.02-.186.8.8,0,0,0,.427-.45,4.981,4.981,0,0,0,.088-1.162v-6.556a4.3,4.3,0,0,0-.1-1.184.8.8,0,0,0-.439-.428,2.423,2.423,0,0,0-1-.175v-.274Zm-14.164,0h3.245v.274a2.643,2.643,0,0,0-1.03.175.746.746,0,0,0-.428.428,2.87,2.87,0,0,0-.1,1.184l.6,6.556a4.964,4.964,0,0,0,.22,1.162.8.8,0,0,0,.416.46,2.37,2.37,0,0,0,1.052.175v.285h-4.824v-.285a2.37,2.37,0,0,0,1.052-.175.867.867,0,0,0,.439-.45,4.559,4.559,0,0,0-.044-1.173l-.6-6.9-4.144,8.979h-.274l-3.859-8.979-.735,6.9a3.565,3.565,0,0,0,0,1.173.843.843,0,0,0,.416.439,2.3,2.3,0,0,0,1,.186v.285H260.6v-.285a2.346,2.346,0,0,0,1.041-.175.789.789,0,0,0,.428-.46,6.916,6.916,0,0,0,.175-1.162l.735-6.49a2.232,2.232,0,0,0-.121-1.031,1.053,1.053,0,0,0-.471-.537,2.288,2.288,0,0,0-.965-.285v-.274H264.7l3.5,8.167,3.76-8.167Zm-13.758,5.58a6.409,6.409,0,0,0-.965-3.629,3.128,3.128,0,0,0-2.763-1.414,3.077,3.077,0,0,0-2.73,1.392,6.3,6.3,0,0,0-.943,3.6,6.022,6.022,0,0,0,1.019,3.684,3.323,3.323,0,0,0,5.361.022,5.988,5.988,0,0,0,1.019-3.65Zm2.028-.055a5.893,5.893,0,0,1-.636,2.609,5.219,5.219,0,0,1-2.017,2.171,5.533,5.533,0,0,1-3.037.877,5.7,5.7,0,0,1-4.034-1.622,5.3,5.3,0,0,1-1.732-4.013,5.427,5.427,0,0,1,1.666-3.969,5.5,5.5,0,0,1,4.056-1.655,5.631,5.631,0,0,1,4.046,1.622,5.378,5.378,0,0,1,1.688,3.98ZM246.966,409l.252,3.607h-.252a3.43,3.43,0,0,0-1.382-2.314,4.134,4.134,0,0,0-2.346-.745,3.685,3.685,0,0,0-2.883,1.282,5.836,5.836,0,0,0-1.129,3.936,4.705,4.705,0,0,0,1.239,3.53,4.18,4.18,0,0,0,3,1.206,4.006,4.006,0,0,0,2.281-.658,4.548,4.548,0,0,0,1.469-1.458l.23.153a4.961,4.961,0,0,1-4.539,2.642,5.632,5.632,0,0,1-4.023-1.59,5.156,5.156,0,0,1-1.644-3.859,5.52,5.52,0,0,1,1.688-4.067A5.7,5.7,0,0,1,243.085,409a6.248,6.248,0,0,1,2.576.57,1.26,1.26,0,0,0,.439.12c.252,0,.45-.23.581-.69Zm-10.02.241v.274h-.416a1.462,1.462,0,0,0-1.042.252,2.172,2.172,0,0,0-.23,1.261v9.033h-.208l-7.663-8.617v6.359a3.429,3.429,0,0,0,.143,1.228.843.843,0,0,0,.45.46,2.6,2.6,0,0,0,.965.164v.285h-3.87v-.285a2.8,2.8,0,0,0,1.086-.175.913.913,0,0,0,.439-.493,7.507,7.507,0,0,0,.1-1.6v-6.632a2.34,2.34,0,0,0-2.171-1.239v-.274h3.1l6.94,7.893V411.12a2.96,2.96,0,0,0-.187-1.294c-.132-.2-.45-.307-.965-.307h-.406v-.274Zm-18.154,2.148-1.491,3.75h2.993l-1.5-3.75Zm.658-2.62,3.946,9.746a2.585,2.585,0,0,0,.515.9,1.274,1.274,0,0,0,.877.241v.285H220.7v-.285c.7,0,1.052-.252,1.052-.745a2.117,2.117,0,0,0-.2-.724l-1.031-2.478h-3.464l-1.173,2.807a1.176,1.176,0,0,0-.076.427c0,.483.362.713,1.074.713v.285H214v-.285a1.123,1.123,0,0,0,.713-.339,3.933,3.933,0,0,0,.636-1.173l3.836-9.373Zm-5.394,8.31-.9,2.861h-7.9v-.285a2.425,2.425,0,0,0,1.063-.175.867.867,0,0,0,.45-.46,4.85,4.85,0,0,0,.088-1.162v-6.556a4.409,4.409,0,0,0-.1-1.184.822.822,0,0,0-.449-.428,2.731,2.731,0,0,0-1.052-.175v-.274h4.812v.274a2.542,2.542,0,0,0-1.019.175.744.744,0,0,0-.427.428,4.39,4.39,0,0,0-.1,1.184v7.313a.7.7,0,0,0,.131.493,1.265,1.265,0,0,0,.691.12H210.7a3.232,3.232,0,0,0,1.886-.461,4.391,4.391,0,0,0,1.195-1.787l.274.1Zm36.1-8.7,4.056-2.215h.713l3.881,2.379-4.286-1.031-4.363.866Z" transform="translate(0)" fill="#2c2c2c" fill-rule="evenodd"/>
    <path id="Path_88" data-name="Path 88" d="M385.171,422.933v.307h.11v-1.228h-.11v.34h-1.436v-.263c.011-.767-.35-1.151-1.1-1.151a1.111,1.111,0,0,0-.713.23,1.237,1.237,0,0,0-.3.9v1.173h.12v-.307Zm-1.557-.581h-1.864v-.219a.923.923,0,0,1,.044-.285.342.342,0,0,1,.132-.164,1.145,1.145,0,0,1,.471-.076h.658c.066.011.131.022.186.033a.6.6,0,0,1,.253.121.391.391,0,0,1,.1.175,1.38,1.38,0,0,1,.022.23v.186Zm1.557-3.037v.307h.11V418.46h-.11v.23l-3.585.888v.252l2.961.735a1.637,1.637,0,0,1,.427.132.311.311,0,0,1,.2.285h.11v-.866h-.11a.553.553,0,0,1-.044.219.311.311,0,0,1-.153.132.739.739,0,0,1-.219,0,2.9,2.9,0,0,1-.285-.055l-.241-.055v-.8l.943-.241Zm-1.063.252v.767l-1.524-.383,1.524-.384Zm1.063-2.028H383.45v-.307a.459.459,0,0,1,.055-.241.308.308,0,0,1,.2-.121,1.219,1.219,0,0,1,.3-.055c.12,0,.241-.011.383-.011.153-.022.285-.033.395-.044a1.809,1.809,0,0,0,.307-.077.34.34,0,0,0,.175-.153.522.522,0,0,0,.066-.285.591.591,0,0,0-.055-.263.577.577,0,0,0-.076-.143l-.11.044a.151.151,0,0,1,.055.1.137.137,0,0,1-.11.12.918.918,0,0,1-.241.066c-.1,0-.208.011-.329.011a1.828,1.828,0,0,0-.351.033c-.044.011-.088.011-.132.022s-.077.022-.11.033a.834.834,0,0,0-.208.132.913.913,0,0,0-.252.537h-.044c-.1-.548-.384-.811-.877-.8a.93.93,0,0,0-.46.088.619.619,0,0,0-.252.252,1.056,1.056,0,0,0-.121.329c-.011.121-.022.241-.022.351v1.283h.12v-.307h3.42v.307h.11v-1.2h-.11v.3Zm-1.842,0h-1.578v-.252a.608.608,0,0,1,.055-.274.472.472,0,0,1,.153-.143.7.7,0,0,1,.2-.066h.537a1.343,1.343,0,0,1,.34.033.5.5,0,0,1,.186.12.343.343,0,0,1,.088.165.853.853,0,0,1,.022.164v.252Zm-1.578-2.16h3.42v.307h.11V414.48h-.11v.307h-3.42v-.307h-.12v1.206h.12v-.307Zm3.53-1.272v-.165a.161.161,0,0,1-.1-.087.4.4,0,0,1,.022-.252c.022-.055.054-.11.087-.176a1.247,1.247,0,0,0,.033-.285.8.8,0,0,0-.12-.439.735.735,0,0,0-.285-.263,1.183,1.183,0,0,0-.373-.143,2.042,2.042,0,0,0-.34-.044,1.534,1.534,0,0,0-.483.076,1.116,1.116,0,0,0-.318.187,1.852,1.852,0,0,0-.208.187.831.831,0,0,0-.088.142l-.274.472a.862.862,0,0,1-.23.263.6.6,0,0,1-.449.11.561.561,0,0,1-.362-.175.484.484,0,0,1-.088-.285c0-.033.011-.066.011-.12.022-.033.044-.088.077-.132a.591.591,0,0,1,.164-.164,1.345,1.345,0,0,1,.307-.153c.132-.044.263-.077.406-.11v-.12H381.63v.164a.115.115,0,0,1,.055.044c.022.022.044.044.044.066a.07.07,0,0,1,0,.066.944.944,0,0,1-.088.208.682.682,0,0,0-.055.263.714.714,0,0,0,.23.5.854.854,0,0,0,.307.187,1.2,1.2,0,0,0,.46.077,1.332,1.332,0,0,0,.526-.088,1,1,0,0,0,.493-.428l.263-.439a.865.865,0,0,1,.219-.3.438.438,0,0,1,.2-.11.862.862,0,0,1,.307-.044.823.823,0,0,1,.318.055.672.672,0,0,1,.187.132.262.262,0,0,1,.077.142c.011.044.022.077.022.088a.558.558,0,0,1,.022.132.483.483,0,0,1-.132.329,1.243,1.243,0,0,1-.318.252A2.374,2.374,0,0,1,384,414v.11Z" transform="translate(-93.073 -3.215)" fill="#2c2c2c" fill-rule="evenodd"/>
  </g>
</svg>
