<svg xmlns="http://www.w3.org/2000/svg" width="86" height="21.628" viewBox="0 0 86 21.628">
  <g id="Group_24" data-name="Group 24" transform="translate(-85 -142.851)">
    <rect id="Rectangle_4" data-name="Rectangle 4" width="85.796" height="5.544" transform="translate(85 158.935)" fill="#212121"/>
    <path id="Path_146" data-name="Path 146" d="M85.334,154.5v11.977H96.6v-1.262H87.049V154.5Z" transform="translate(-0.269 -9.387)" fill="#212121"/>
    <path id="Path_147" data-name="Path 147" d="M126.333,159h1.295l2.3-4.337h-1.845Z" transform="translate(-33.306 -9.521)" fill="#212121"/>
    <path id="Exclusion_1" data-name="Exclusion 1" d="M1.716,12.043H0V0H7.9S7.94,0,8,0c.658,0,3.94.166,3.94,3.433a3.156,3.156,0,0,1-.47,1.685A3.872,3.872,0,0,1,10.439,6.2a5.338,5.338,0,0,1-1.505.757l3.625,5.05h-2.1L6.7,6.994H1.716v5.05Zm0-10.682V5.569H7.8A2.992,2.992,0,0,0,8.918,5.31,1.863,1.863,0,0,0,10.035,3.5c0-2.034-2.224-2.137-2.669-2.137H1.716Z" transform="translate(115.945 145.079)" fill="#212121"/>
    <path id="Path_150" data-name="Path 150" d="M320.667,154.167v12.042h10.682v-1.295H322.48v-4.208h6.7v-1.36h-6.7v-3.884h8.869v-1.295Z" transform="translate(-189.896 -9.118)" fill="#212121"/>
    <path id="Path_151" data-name="Path 151" d="M348.838,144.667h-3.043l-1.295,1.489Z" transform="translate(-209.1 -1.464)" fill="#212121"/>
    <path id="Exclusion_2" data-name="Exclusion 2" d="M14.729,12.107H12.657L11.006,9.031H3.625L2.072,12.106H0L6.15,0h2.4l6.183,12.106ZM7.348,1.586,4.5,7.445h5.762L7.348,1.586Z" transform="translate(143.363 145.016)" fill="#212121"/>
    <path id="Path_154" data-name="Path 154" d="M469.666,154.333V166.31h11.265v-1.262h-9.549V154.333Z" transform="translate(-309.957 -9.252)" fill="#212121"/>
    <path id="Exclusion_3" data-name="Exclusion 3" d="M8.3,15.308a8.859,8.859,0,0,1-3.232-.6,8.347,8.347,0,0,1-2.639-1.64A7.626,7.626,0,0,1,.653,10.633a7.127,7.127,0,0,1,0-5.958A7.626,7.626,0,0,1,2.432,2.242,8.347,8.347,0,0,1,5.071.6a8.984,8.984,0,0,1,6.464,0,8.348,8.348,0,0,1,2.639,1.64,7.626,7.626,0,0,1,1.779,2.433,7.127,7.127,0,0,1,0,5.958,7.626,7.626,0,0,1-1.779,2.433,8.348,8.348,0,0,1-2.639,1.64A8.86,8.86,0,0,1,8.3,15.308ZM8.32,1.583a6.2,6.2,0,0,0-6.28,6.1,6.2,6.2,0,0,0,6.28,6.1,6.2,6.2,0,0,0,6.28-6.1A6.2,6.2,0,0,0,8.32,1.583Z" transform="translate(97.656 142.851)" fill="#212121"/>
    <path id="Exclusion_4" data-name="Exclusion 4" d="M.7,3.674H0V0H2.739a2.325,2.325,0,0,1,.756.139.95.95,0,0,1,.7.929.95.95,0,0,1-.7.929,2.325,2.325,0,0,1-.756.139H.7V3.674Zm0-3.2V1.683H2.654c.008,0,.809-.023.809-.615A.567.567,0,0,0,3.01.544,1.644,1.644,0,0,0,2.557.469Z" transform="translate(87.217 159.955)" fill="#fff"/>
    <path id="Exclusion_5" data-name="Exclusion 5" d="M.745,3.706H0V0H2.67A3,3,0,0,1,3.48.14a1.43,1.43,0,0,1,.556.318.828.828,0,0,1,.253.611.964.964,0,0,1-.192.608,1.046,1.046,0,0,1-.423.312,1.768,1.768,0,0,1-.615.132l1.5,1.586h-.89L2.185,2.12H.745V3.706Zm0-3.237V1.683H2.723A1.312,1.312,0,0,0,3.19,1.6a.54.54,0,0,0,.371-.528.53.53,0,0,0-.4-.511A1.7,1.7,0,0,0,2.6.469H.745Z" transform="translate(94.258 160.036)" fill="#fff"/>
    <path id="Exclusion_6" data-name="Exclusion 6" d="M2.25,3.917A2.414,2.414,0,0,1,.659,3.343,1.828,1.828,0,0,1,0,1.958,2.122,2.122,0,0,1,2.25,0,2.122,2.122,0,0,1,4.5,1.958,2.122,2.122,0,0,1,2.25,3.917ZM2.266.4A1.564,1.564,0,0,0,.7,1.958a1.57,1.57,0,0,0,3.14,0A1.564,1.564,0,0,0,2.266.4Z" transform="translate(101.185 159.858)" fill="#fff"/>
    <path id="Path_161" data-name="Path 161" d="M203.5,235.04v-3.706h3.561v.469h-2.784v1.052h2.59v.453h-2.59v1.732Z" transform="translate(-95.485 -71.298)" fill="#fff"/>
    <path id="Path_162" data-name="Path 162" d="M237.666,231h3.868v.421h-3.124v1.133h2.7v.437h-2.7v1.246h3.221v.437h-3.965Z" transform="translate(-123.016 -71.03)" fill="#fff"/>
    <path id="Path_163" data-name="Path 163" d="M274.415,231.5l.13-.5a8.953,8.953,0,0,0-1.165-.162c-.356,0-1.8.162-1.8.987,0,1.165,2.412,1.068,2.412,1.829s-1.878.469-2.234.356l-.1.518a9.325,9.325,0,0,0,1.343.146c.55,0,1.829-.194,1.829-1.084,0-1.182-2.4-1.068-2.4-1.8C272.441,231.125,274.092,231.384,274.415,231.5Z" transform="translate(-150.345 -70.895)" fill="#fff"/>
    <path id="Path_164" data-name="Path 164" d="M304.832,231.5l.13-.5a8.953,8.953,0,0,0-1.165-.162c-.356,0-1.8.162-1.8.987,0,1.165,2.411,1.068,2.411,1.829s-1.877.469-2.233.356l-.1.518a9.326,9.326,0,0,0,1.343.146c.55,0,1.829-.194,1.829-1.084,0-1.182-2.4-1.068-2.4-1.8C302.858,231.125,304.509,231.384,304.832,231.5Z" transform="translate(-174.855 -70.895)" fill="#fff"/>
    <rect id="Rectangle_5" data-name="Rectangle 5" width="0.712" height="3.706" transform="translate(133.474 160.117)" fill="#fff"/>
    <path id="Exclusion_7" data-name="Exclusion 7" d="M2.25,3.917A2.414,2.414,0,0,1,.659,3.343,1.828,1.828,0,0,1,0,1.958,1.827,1.827,0,0,1,.659.574,2.414,2.414,0,0,1,2.25,0,2.122,2.122,0,0,1,4.5,1.958,2.122,2.122,0,0,1,2.25,3.917ZM2.266.4A1.564,1.564,0,0,0,.7,1.958a1.57,1.57,0,0,0,3.14,0A1.564,1.564,0,0,0,2.266.4Z" transform="translate(137.099 159.971)" fill="#fff"/>
    <path id="Path_166" data-name="Path 166" d="M388.917,235.04v-3.706h.745l2.913,2.913v-2.913h.7v3.706h-.712l-2.938-2.938v2.938Z" transform="translate(-244.891 -71.298)" fill="#fff"/>
    <path id="Path_167" data-name="Path 167" d="M427.626,235.04v-3.706h.745l2.913,2.913v-2.913h.7v3.706h-.712L428.33,232.1v2.938Z" transform="translate(-276.082 -71.298)" fill="#fff"/>
    <path id="Path_168" data-name="Path 168" d="M465.792,231.335h3.868v.421h-3.124v1.133h2.7v.437h-2.7v1.246h3.221v.437h-3.966Z" transform="translate(-306.835 -71.299)" fill="#fff"/>
    <path id="Path_169" data-name="Path 169" d="M500.417,231.083v3.69h3.5v-.421h-2.768v-3.269Z" transform="translate(-334.735 -71.096)" fill="#fff"/>
    <path id="Exclusion_8" data-name="Exclusion 8" d="M.291,1.522H0V0H.914a.523.523,0,0,1,.227.063A.461.461,0,0,1,1.367.5.478.478,0,0,1,.845.98H.291v.542Zm0-1.327h0v.55H.647a.43.43,0,0,0,.062,0A.357.357,0,0,0,.89.706.229.229,0,0,0,1,.494a.284.284,0,0,0-.314-.3H.291Z" transform="translate(162.493 153.707)" fill="#212121"/>
    <path id="Union_1" data-name="Union 1" d="M1.262,1.521l-.111-.307H.464l-.116.307H0L.615,0H.987L1.61,1.521ZM1.067.979l-.25-.7-.264.7Z" transform="translate(164.096 153.691)" fill="#212121"/>
    <path id="Union_3" data-name="Union 3" d="M1.044,1.522.675.979H.291v.542H0V0H.915a.461.461,0,0,1,.453.5.433.433,0,0,1-.335.451l.384.569Z" transform="translate(166.305 153.707)" fill="#212121"/>
    <rect id="Rectangle_7" data-name="Rectangle 7" width="0.332" height="1.505" transform="translate(168.53 153.699)" fill="#212121"/>
    <path id="Path_176" data-name="Path 176" d="M520.946,198.994l.259-.186a1.007,1.007,0,0,0-.817-.307c-.591,0-.639.372-.639.477,0,.526,1.141.372,1.141.68s-.8.243-.987-.032l-.235.178a1.048,1.048,0,0,0,.785.283c.542,0,.795-.316.795-.478,0-.558-1.175-.388-1.175-.655S520.767,198.711,520.946,198.994Z" transform="translate(-350.247 -44.841)" fill="#212121"/>
  </g>
</svg>
