<svg xmlns="http://www.w3.org/2000/svg" width="59.19" height="39" viewBox="0 0 59.19 39">
  <g id="Group_15" data-name="Group 15" transform="translate(-77.526 -199.204)">
    <path id="Path_70" data-name="Path 70" d="M107.638,467.061h-3.416v1.769h3.145v.683h-3.145v1.927h3.46v.693h-4.23v-5.755h4.187Zm1.839-.683v5.063H112.4v.693h-3.678v-5.755Zm6.7,0v2.785l2.776-2.785h1.078l-2.391,2.338,2.453,3.417H119.1l-2.031-2.892-.894.877v2.015h-.788v-5.755Zm4.467.893a3.6,3.6,0,0,0,0,3.969,2.526,2.526,0,0,0,2.208,1.051,2.475,2.475,0,0,0,2.189-1.051,3.521,3.521,0,0,0,0-3.969,2.476,2.476,0,0,0-2.189-1.051,2.527,2.527,0,0,0-2.208,1.051m2.208-.367a1.805,1.805,0,0,1,1.463.683,2.889,2.889,0,0,1,0,3.347,1.772,1.772,0,0,1-1.463.674,1.727,1.727,0,0,1-1.463-.674,2.889,2.889,0,0,1,0-3.347,1.805,1.805,0,0,1,1.463-.683m3.827-.525v5.755h.771v-2.47h1.884a.907.907,0,0,1,1.033,1.024,5.779,5.779,0,0,0,.123,1.446h.964V472a.589.589,0,0,1-.281-.569l-.061-1.043a1.275,1.275,0,0,0-.228-.8,1.07,1.07,0,0,0-.455-.3,1.5,1.5,0,0,0,.788-1.367c0-1.042-.63-1.55-1.882-1.55Zm.771.657h1.927c.7,0,1.051.323,1.051.963,0,.674-.394,1.007-1.165,1.007h-1.814Zm6.963-.132c-.893,0-1.331.333-1.331,1.007,0,.377.236.614.692.719l1.647.376a1.592,1.592,0,0,1,.543,2.917,2.707,2.707,0,0,1-1.489.368,2.578,2.578,0,0,1-1.742-.552,1.838,1.838,0,0,1-.578-1.462h.727a1.223,1.223,0,0,0,.508,1.068,1.891,1.891,0,0,0,1.068.272c1.008,0,1.507-.315,1.507-.972a.785.785,0,0,0-.254-.649,2.337,2.337,0,0,0-.964-.359l-1.182-.281c-.814-.193-1.226-.64-1.226-1.358a1.688,1.688,0,0,1,.473-1.209,1.956,1.956,0,0,1,1.516-.569c1.419,0,2.163.614,2.251,1.84h-.736a1.088,1.088,0,0,0-.49-.911,1.76,1.76,0,0,0-.937-.245m-52.131.394-1.62,4.836H79.89l-1.6-4.836h-.035l.035,4.836h-.762v-5.755h1.112l1.629,4.862H80.3l1.629-4.862h1.112v5.755h-.762L82.3,467.3Zm5.256.193A2.481,2.481,0,0,0,87,469.2c0,1.6.622,2.409,1.892,2.409.893,0,1.445-.525,1.655-1.594H91.3a2.454,2.454,0,0,1-2.522,2.277,2.417,2.417,0,0,1-1.778-.7,3.2,3.2,0,0,1-.806-2.366,3.146,3.146,0,0,1,.718-2.163,2.423,2.423,0,0,1,1.953-.841,2.458,2.458,0,0,1,1.707.6,2.061,2.061,0,0,1,.674,1.287h-.762a1.435,1.435,0,0,0-1.62-1.2,1.69,1.69,0,0,0-1.331.587m5.491-1.112v2.382h3v-2.382h.762v5.755h-.762v-2.69h-3v2.69H92.24v-5.755Zm6.674,0-2.181,5.755h.806l.6-1.664h2.312l.578,1.664h.833l-2.068-5.755Zm.394.858.859,2.54H99.177l.9-2.54Zm-15.756-.858h.779v5.755H84.34Z" transform="translate(0 -234.087)" fill="#2c2c2c" fill-rule="evenodd"/>
    <path id="Path_71" data-name="Path 71" d="M214.388,199.2a14.507,14.507,0,1,0,14.507,14.507A14.507,14.507,0,0,0,214.388,199.2m11.724,14.507A11.659,11.659,0,0,1,224.9,218.9l-4.555-5.868,4.51-4.6a11.653,11.653,0,0,1,1.258,5.275m-11.724-11.724a11.728,11.728,0,0,1,10.1,5.779h-2.851l-4.323,4.024v-4.024h-3.676l-3.03,7.4-2.881-7.4h-3.438a11.73,11.73,0,0,1,10.1-5.779m-10.339,6.2v11.047a11.7,11.7,0,0,1,0-11.047m10.339,17.248a11.729,11.729,0,0,1-10.081-5.746h2.325l.049-5.962,2.584,5.962H211.8l2.588-5.962v5.962h2.777l.1-4.074.894-.745,3.925,4.819h2.385a11.728,11.728,0,0,1-10.08,5.746" transform="translate(-107.267)" fill="#2c2c2c"/>
  </g>
</svg>
