<svg xmlns="http://www.w3.org/2000/svg" width="58.178" height="37" viewBox="0 0 58.178 37">
  <g id="Group_16" data-name="Group 16" transform="translate(70 -187.89)">
    <path id="Path_72" data-name="Path 72" d="M144.2,471.85h-6.35s-.575-.011-.575.454v1.717h5.6v1.707h-5.6v1.909s-.01.515.434.515h6.646a.69.69,0,0,1,.52.258,1.743,1.743,0,0,1,.322.836c.02.237.02.6.02.6h-7.833s-2.07-.154-2.07-1.881v-6.151a1.793,1.793,0,0,1,1.919-1.656h7.939s-.051,1.808-.973,1.687Z" transform="translate(-189.033 -259.901)" fill="#2c2c2c" fill-rule="evenodd"/>
    <path id="Path_73" data-name="Path 73" d="M-70,469.683l3.135,9.727h1.921l2.669-6.977,2.589,6.977H-57.7l3.26-9.756h-1.98l-2.312,6.9-2.254-6.329s-.071-.455-.808-.455-1.448-.092-1.752.616-2.225,6.168-2.225,6.168l-2.214-6.876Z" transform="translate(0 -259.432)" fill="#2c2c2c" fill-rule="evenodd"/>
    <path id="Path_74" data-name="Path 74" d="M275.705,469.51h1.9V477.1s.073.5.461.5h5.3s.317-.025.519.438a3.836,3.836,0,0,1,.191,1.255h-6.714a1.82,1.82,0,0,1-1.667-1.8c0-1.636.009-7.991.009-7.991Z" transform="translate(-318.287 -259.3)" fill="#2c2c2c" fill-rule="evenodd"/>
    <path id="Path_75" data-name="Path 75" d="M393.438,469.51h1.9V477.1s.073.5.461.5h5.887l-.853,1.693H395.1a1.82,1.82,0,0,1-1.667-1.8c0-1.636.009-7.991.009-7.991Z" transform="translate(-426.685 -259.3)" fill="#2c2c2c" fill-rule="evenodd"/>
    <path id="Path_76" data-name="Path 76" d="M500.464,479.2H502.7l.929-1.909h6.5l.9,1.9h2.283l-4.3-9a1.558,1.558,0,0,0-1.222-.788h-1.858a1.532,1.532,0,0,0-1.162.8c-.475.778-4.3,9-4.3,9Zm3.77-3.358h5.278c-.81-1.505-1.309-3.026-2.128-4.526a.592.592,0,0,0-.967.018c-.86,1.539-1.5,3.015-2.184,4.508Z" transform="translate(-525.238 -259.198)" fill="#2c2c2c" fill-rule="evenodd"/>
    <path id="Path_77" data-name="Path 77" d="M173.742,615.141l-.016-.034.006-.054.008-.081q.014-.125.026-.286l.064-.018a1.936,1.936,0,0,0,1,.267,1.523,1.523,0,0,0,.39-.043.7.7,0,0,0,.346-.186.41.41,0,0,0,.115-.284.39.39,0,0,0-.144-.3v0l0,0v0h0a1.009,1.009,0,0,0-.3-.161,1.815,1.815,0,0,0-.227-.076l-.039-.011-.286-.1-.042-.016-.045-.015a1.908,1.908,0,0,1-.631-.345.705.705,0,0,1-.236-.53.748.748,0,0,1,.432-.68,1.955,1.955,0,0,1,.957-.206,3.388,3.388,0,0,1,.9.114l.059.016c.016,0,.04.011.07.022l.034.031c-.02.131-.035.267-.045.4l-.05.023a2.378,2.378,0,0,0-.941-.218,1.28,1.28,0,0,0-.511.09.388.388,0,0,0-.275.36c0,.145.1.264.289.358a4.3,4.3,0,0,0,.445.17l.3.1a2.349,2.349,0,0,1,.685.328.736.736,0,0,1,.286.593.821.821,0,0,1-.379.691,1.868,1.868,0,0,1-1.108.289,3.321,3.321,0,0,1-1.06-.177.5.5,0,0,1-.068-.024Zm-.468.1-.029.031q-.477,0-1.1,0l-.4,0-.416,0-.283,0-.035-.031q.02-.533.023-.864.006-.258.006-.577v-.309q0-.835-.039-1.437l.034-.031.333-.007.119,0,.126,0,.084,0,.033.027c-.009.147-.016.319-.022.519-.01.176-.016.388-.02.635l0,.089v.094q-.006.269-.006.539v.387q0,.3.011.56h.609q.112,0,.966-.023l.034.036c-.013.1-.022.222-.028.354Zm-3.867-1.324-.551-1.544-.6,1.544.286,0h.144l.146,0,.144,0h.146l.289,0Zm1.2,1.315-.023.036-.668.014-.039-.031q-.144-.427-.194-.564l-.062-.17-.031-.083-.031-.087-.023-.058-.086,0q-.438-.009-.629-.009t-.631.009l-.084,0q-.163.429-.339.944l-.039.031q-.264,0-.592.014l-.023-.031c.049-.115.1-.224.141-.327l.067-.154.073-.17.129-.295.118-.273.118-.273.124-.3.042-.094.036-.089q.292-.678.452-1.09l.039-.116.047-.031.82-.014.042.031.028.079.076.2.07.184.071.186.076.2q.124.325.261.656.273.7.534,1.338l.016.042c.036.087.069.169.1.249l.017.044Zm-3.979.009-.029.031q-.315,0-.707.014l-.048-.031q-.516-.744-.631-.9l-.166-.233c-.071-.1-.146-.2-.224-.311l-.909-1.293.059,1.573.008.183.006.17.006.161.008.176q.009.269.023.459l-.029.031c-.168,0-.354,0-.558.014l-.034-.031q.02-.54.023-.8c0-.106.006-.225.006-.356v-.26q0-.814-.012-1.13-.017-.425-.017-.488c0-.044,0-.084,0-.123l0-.027.029-.031.741-.014.065.031c.03.047.068.1.115.166.075.11.156.228.244.354l.081.116.05.072.056.078.051.076.053.074.1.138c.147.215.288.415.42.6l.713,1-.047-1.517c0-.128-.008-.268-.012-.419q-.006-.134-.017-.369l0-.045c0-.1-.011-.208-.019-.309l.034-.031c.165,0,.347,0,.547-.014l.035.031v.087q0,.052-.009.383,0,.15-.009.765v.383l0,.247v.163q0,.5.014.967l.006.193Zm-5.8-2.893a1.1,1.1,0,0,0-.912.383,1.212,1.212,0,0,0-.228.519,1.9,1.9,0,0,0-.044.386,1.738,1.738,0,0,0,.125.674.974.974,0,0,0,.334.43,1.193,1.193,0,0,0,.721.217,1.291,1.291,0,0,0,.537-.1,1.054,1.054,0,0,0,.1-.053,1.021,1.021,0,0,0,.149-.108s0,0,.006-.007,0,0,.006-.006a1.941,1.941,0,0,0,.239-.32,1.691,1.691,0,0,0,.146-.707,1.83,1.83,0,0,0-.121-.683.943.943,0,0,0-.311-.409,1.216,1.216,0,0,0-.743-.215Zm-.006-.38a2.493,2.493,0,0,1,.7.092,1.529,1.529,0,0,1,.368.15l.014.009a1.565,1.565,0,0,1,.783,1.452,1.53,1.53,0,0,1-.614,1.323,2.093,2.093,0,0,1-1.258.349,2.279,2.279,0,0,1-1.027-.215,1.492,1.492,0,0,1-.836-1.453,1.6,1.6,0,0,1,.567-1.3,1.99,1.99,0,0,1,1.3-.4Zm-2.571,3.274-.039.031c-.193,0-.405,0-.64.014l-.034-.031c.021-.311.031-.668.031-1.072,0-.044,0-.221,0-.528l0-.231v-.251l0-.1v-.1q-.009-.517-.026-.71c0-.04,0-.082-.008-.125a.65.65,0,0,1-.006-.073l.034-.031c.159,0,.372-.008.64-.018l.034.036q-.006.23-.017.49-.01.326-.011.716v.253q0,.993.05,1.728Zm-3.988-.1-.016-.034.006-.054.008-.081q.014-.125.026-.286l.064-.018a1.936,1.936,0,0,0,1,.267,1.522,1.522,0,0,0,.39-.043.7.7,0,0,0,.346-.186.41.41,0,0,0,.115-.284.39.39,0,0,0-.144-.3v0l0,0v0h0a1.012,1.012,0,0,0-.3-.161,1.823,1.823,0,0,0-.227-.076l-.039-.011-.286-.1-.042-.016-.045-.015a1.907,1.907,0,0,1-.631-.345.706.706,0,0,1-.236-.53.748.748,0,0,1,.432-.68,1.954,1.954,0,0,1,.957-.206,3.387,3.387,0,0,1,.9.114l.059.016c.016,0,.04.011.07.022l.033.031c-.02.131-.035.267-.045.4l-.05.023a2.377,2.377,0,0,0-.941-.218,1.28,1.28,0,0,0-.511.09.387.387,0,0,0-.275.36c0,.145.1.264.289.358a4.269,4.269,0,0,0,.445.17l.3.1a2.347,2.347,0,0,1,.685.328.736.736,0,0,1,.286.593.822.822,0,0,1-.379.691,1.867,1.867,0,0,1-1.108.289,3.321,3.321,0,0,1-1.061-.177.5.5,0,0,1-.068-.024Zm-3.115,0-.016-.034.006-.054.008-.081q.014-.125.026-.286l.064-.018a1.935,1.935,0,0,0,1,.267,1.523,1.523,0,0,0,.39-.043.7.7,0,0,0,.346-.186.411.411,0,0,0,.115-.284.39.39,0,0,0-.144-.3v0l0,0v0h0a1.01,1.01,0,0,0-.3-.161,1.818,1.818,0,0,0-.227-.076l-.039-.011-.286-.1-.042-.016-.045-.015a1.907,1.907,0,0,1-.631-.345.706.706,0,0,1-.236-.53.748.748,0,0,1,.432-.68,1.955,1.955,0,0,1,.957-.206,3.387,3.387,0,0,1,.9.114l.059.016c.016,0,.04.011.07.022l.034.031q-.03.2-.045.4l-.05.023a2.377,2.377,0,0,0-.941-.218,1.28,1.28,0,0,0-.511.09.387.387,0,0,0-.275.36c0,.145.1.264.289.358a4.27,4.27,0,0,0,.445.17l.3.1a2.349,2.349,0,0,1,.685.328.736.736,0,0,1,.286.593.821.821,0,0,1-.379.691,1.867,1.867,0,0,1-1.108.289,3.321,3.321,0,0,1-1.06-.177.506.506,0,0,1-.068-.024Zm-.5.1-.042.031q-.517,0-1.2,0l-.432,0-.455,0-.308,0-.029-.031q.029-.573.029-1.455v-.219q0-.512-.039-1.512l.039-.031.311,0,.457,0,.438,0,.436,0,.46,0,.311,0,.031.031c-.018.137-.031.257-.036.358l-.039.031-.218,0q-.786-.016-1.5-.018-.01.463-.011.722v.253h.516q.5,0,1.1-.014l.034.031c-.016.137-.028.257-.034.358l-.033.031q-.76-.014-1.339-.013h-.246q0,.085-.009.286l0,.143c0,.1,0,.159,0,.173s0,.1,0,.232c0,.114,0,.2.006.262h.241q.645,0,1.552-.022l.028.031c-.012.1-.018.213-.022.344Zm-4.5,0-.028.031q-.3,0-.665.014l-.029-.031.006-.13q.02-.392.023-.884c0-.26.006-.5.006-.7v-.3q0-.721-.023-.991l0-.058c-.006-.055-.009-.1-.009-.121l.029-.031h.326l.583,0,.281,0h.309l.41,0,.407,0,.028.031c-.015.149-.026.27-.033.363l-.034.031c-.42-.011-.839-.018-1.261-.021l-.356,0c-.008.28-.011.5-.011.661v.371c.521,0,1-.012,1.425-.022l.028.027c-.008.1-.016.179-.025.25l-.009.07-.006.047-.034.031q-.836-.013-1.37-.018c0,.036,0,.078,0,.128s0,.082,0,.094v.036c0,.106,0,.256.009.45v.058l0,.06,0,.051v.05c0,.2.012.356.025.472Zm-3.292-2.893a1.1,1.1,0,0,0-.912.383,1.21,1.21,0,0,0-.228.519,1.9,1.9,0,0,0-.044.386,1.737,1.737,0,0,0,.125.674.973.973,0,0,0,.334.43,1.192,1.192,0,0,0,.721.217,1.291,1.291,0,0,0,.536-.1,1.061,1.061,0,0,0,.1-.053,1.024,1.024,0,0,0,.149-.108s0,0,.006-.007,0,0,.006-.006a1.939,1.939,0,0,0,.238-.32,1.689,1.689,0,0,0,.146-.707,1.828,1.828,0,0,0-.121-.683.944.944,0,0,0-.311-.409,1.217,1.217,0,0,0-.743-.215Zm-.006-.38a2.492,2.492,0,0,1,.7.092,1.527,1.527,0,0,1,.368.15l.014.009a1.565,1.565,0,0,1,.783,1.452,1.53,1.53,0,0,1-.614,1.323,2.092,2.092,0,0,1-1.258.349,2.279,2.279,0,0,1-1.027-.215,1.492,1.492,0,0,1-.836-1.453,1.6,1.6,0,0,1,.567-1.3,1.991,1.991,0,0,1,1.3-.4Zm-4.465,1.555h.109l.025,0a.5.5,0,0,0,.065,0h.053a1.892,1.892,0,0,0,.887-.154.466.466,0,0,0,.269-.419.523.523,0,0,0-.016-.125.394.394,0,0,0-.115-.209.122.122,0,0,0-.02-.018.046.046,0,0,0-.014-.012l-.008-.008a.657.657,0,0,0-.346-.153,2.745,2.745,0,0,0-.474-.031c-.079,0-.216,0-.415.009q-.006.186-.006.412v.277q0,.237.006.425Zm.05,1.719-.034.031q-.283,0-.631.014l-.036-.031.006-.173q.019-.638.019-1.168,0-.645-.013-1.068-.006-.212-.045-.778l.033-.031h.23l.489-.009h.592a2.167,2.167,0,0,1,.9.159.753.753,0,0,1,.49.729.8.8,0,0,1-.466.716,1.934,1.934,0,0,1-.511.183,1.3,1.3,0,0,0,.1.114.61.61,0,0,0,.042.052l.042.047q.1.112.236.273l.124.145.064.076.071.08q.2.228.5.548l.076.08-.028.045q-.341,0-.707.018l-.04-.018q-.168-.242-.466-.591c-.055-.066-.127-.153-.213-.261s-.16-.2-.183-.224l-.061-.076A.125.125,0,0,1,139,614.1c-.012-.015-.032-.037-.058-.067l-.042-.045a.375.375,0,0,1-.032-.036l-.056-.058-.253,0h-.166q.006.366.017.761l.009.322,0,.072c0,.036.007.067.008.094,0,.044.007.075.009.094Zm-3.4-1.573h.126a4.1,4.1,0,0,0,.694-.044.79.79,0,0,0,.538-.307.522.522,0,0,0,.09-.311.53.53,0,0,0-.154-.4.693.693,0,0,0-.3-.163,1.971,1.971,0,0,0-.486-.047h-.129q-.233,0-.376.014c0,.143,0,.3,0,.481v.315c0,.172,0,.326,0,.463Zm.045,1.573-.033.031c-.189,0-.4,0-.631.014l-.036-.031q.019-.6.019-1.032v-.558q-.006-.968-.053-1.6l.028-.031h.143c.07,0,.151,0,.244,0l.233,0,.388,0,.028,0q.042,0,.135,0a2.4,2.4,0,0,1,1,.148l.039.018.016.007a.92.92,0,0,1,.337.255.864.864,0,0,1-.16,1.242,1.556,1.556,0,0,1-.758.3,4.565,4.565,0,0,1-.721.052h-.07c-.066,0-.13,0-.195,0q0,.152.023.747c.006.178.012.329.022.454Z" transform="translate(-188.18 -390.452)" fill="#2c2c2c" fill-rule="evenodd"/>
    <path id="Path_78" data-name="Path 78" d="M12.817,192.144a2.318,2.318,0,0,0,.971-.971c.384-.708,2.2-1.739,4.469-1.193s4.833,2.73,7.018,4.186,4.348,2.932,6.492,3.216a13.153,13.153,0,0,0,6.573-.89,28.745,28.745,0,0,1,6.047-2.083,4.068,4.068,0,0,1,3.127.621c.584.509.731.847.9.811s.218-1.26-.722-2.048-2.716-1.79-5.911-.8-5.784,2.649-8.757,2.407-5.6-2.184-9.525-5.036-6.289-2.508-7.2-2.407a5.349,5.349,0,0,0-3.161,1.471c-.737.879-.717,1.414-.919,1.566a4.816,4.816,0,0,0-2.25,2.181c-.627,1.456-.445,2.568-.87,2.932s-2.133,1.574-2.446,1.755a.649.649,0,0,0-.323.929c.2.515.98.838.818,1.2s-.674.613-.422,1.037.433.489.433.489a1.541,1.541,0,0,0-.577.565.428.428,0,0,0,.138.579.434.434,0,0,1,.191.484c-.045.252-.35,1.362-.057,1.867a1.557,1.557,0,0,0,1.434.717c.646.02,4.384-.444,5.848.03a4.208,4.208,0,0,1,2.3,1.6,10.729,10.729,0,0,1,.595,1.056.173.173,0,0,0,.191.106c.156-.01-.009-1.111-.291-1.788A4,4,0,0,0,14.88,204.7c-1.173-.566-4.146-.364-4.146-.364s-1.744.215-2.011-.063A.828.828,0,0,1,8.6,203.3c.166-.307.358-.579.277-.771s-.489-.408-.242-.7.569-.454.247-.665-.554-.363-.418-.524a1.353,1.353,0,0,0,.378-.837c-.015-.343-.62-.806-.746-.937s-.272-.307.02-.484S10.589,196.833,10.8,196s-.091-2.576,2.016-3.861Z" transform="translate(-70.197)" fill="#2c2c2c" fill-rule="evenodd"/>
    <path id="Path_79" data-name="Path 79" d="M132.144,244.537s-1.043.469-1.073.7.242.227.655.156a4.218,4.218,0,0,1,2.627.325c1.192.566,2.516,1.484,5.049,4.216a11.529,11.529,0,0,0,9.121,4.085,23.776,23.776,0,0,0,8.13-2.346,10.354,10.354,0,0,1,5.1-1.208,5.658,5.658,0,0,1,3.151,1.626s.313.283.313-.131a2.658,2.658,0,0,0-1.454-2.465,7.7,7.7,0,0,0-5.617-.492c-1.861.506-6.209,2.811-9.444,2.831a10.165,10.165,0,0,1-6.249-1.942c-.539-.372-1.662-1.081-2.754-1.972-1.353-1.1-4.433-4.371-7.557-3.38Z" transform="translate(-185.157 -51.981)" fill="#2c2c2c" fill-rule="evenodd"/>
    <path id="Path_80" data-name="Path 80" d="M180.749,315.719s1.881,1.84,2.932,3.094,4,4.247,8.433,4.085,5.966-1.274,11.325-3.094,7.281,1.213,7.281,1.213l.284.453s.263.172.273-.535.009-2.2-2.559-3.032-5.7-.384-10.395,1.476-7.058,1.517-8.817,1.031a15.986,15.986,0,0,1-5.4-3.4,10.913,10.913,0,0,0-3.357-2.447c-1.011-.344-1.82-.2-1.78.061s.688-.04,1.78,1.092Z" transform="translate(-229.255 -116.446)" fill="#2c2c2c" fill-rule="evenodd"/>
  </g>
</svg>
