<svg xmlns="http://www.w3.org/2000/svg" width="66" height="23.389" viewBox="0 0 66 23.389">
  <g id="Group_4" data-name="Group 4" transform="translate(-93.873 -350.459)">
    <g id="Group_2" data-name="Group 2" transform="translate(94.658 370.103)">
      <path id="Path_6" data-name="Path 6" d="M98.726,472.49h.779v1.448h1.367V472.49h.754v3.619h-.754v-1.584H99.505v1.584h-.779Z" transform="translate(-98.726 -472.425)" fill="#2c2c2c"/>
      <path id="Path_7" data-name="Path 7" d="M148.495,472.49v2.282a.708.708,0,0,0,.809.8c.543,0,.784-.267.784-.835V472.49h.744v2.227c0,.975-.508,1.448-1.553,1.448s-1.553-.463-1.553-1.448V472.49Z" transform="translate(-139.804 -472.425)" fill="#2c2c2c"/>
      <path id="Path_8" data-name="Path 8" d="M200.545,475.56a3.019,3.019,0,0,1-1.4.3,1.7,1.7,0,0,1-1.92-1.82,1.755,1.755,0,0,1,1.9-1.92c.894,0,1.432.447,1.432,1.111v.066h-.729a.661.661,0,0,0-.749-.684c-.649,0-1.066.523-1.066,1.4,0,.85.407,1.3,1.186,1.3a2.341,2.341,0,0,0,.593-.075v-.789H199.1v-.578h1.443Z" transform="translate(-181.313 -472.112)" fill="#2c2c2c"/>
      <path id="Path_9" data-name="Path 9" d="M249.723,472.147a1.873,1.873,0,1,1-1.729,1.845A1.656,1.656,0,0,1,249.723,472.147Zm0,3.2c.6,0,.92-.457.92-1.347,0-.874-.332-1.327-.92-1.327s-.915.453-.915,1.327C248.8,474.887,249.125,475.344,249.718,475.344Z" transform="translate(-223.884 -472.137)" fill="#2c2c2c"/>
      <path id="Path_10" data-name="Path 10" d="M335.175,472.49h1.241c.935,0,1.377.267,1.377.925a.753.753,0,0,1-.593.784.88.88,0,0,1,.744.9.947.947,0,0,1-.256.694,1.673,1.673,0,0,1-1.267.312h-1.246Zm1.246,1.468c.438,0,.634-.1.634-.442,0-.377-.191-.472-.634-.472h-.508v.915Zm0,1.574c.538,0,.764-.06.764-.513,0-.427-.236-.508-.764-.508h-.508v1.021Z" transform="translate(-296.983 -472.425)" fill="#2c2c2c"/>
      <path id="Path_11" data-name="Path 11" d="M383.539,472.147a1.873,1.873,0,1,1-1.729,1.845A1.656,1.656,0,0,1,383.539,472.147Zm-.005,3.2c.6,0,.92-.457.92-1.347,0-.874-.332-1.327-.92-1.327s-.915.453-.915,1.327C382.619,474.887,382.941,475.344,383.534,475.344Z" transform="translate(-336.086 -472.137)" fill="#2c2c2c"/>
      <path id="Path_12" data-name="Path 12" d="M433.464,474.594a.635.635,0,0,0,.714.724c.392,0,.648-.216.648-.5,0-.357-.332-.453-.935-.659a2.575,2.575,0,0,1-.759-.337.824.824,0,0,1-.317-.679c0-.628.5-1.061,1.377-1.061.8,0,1.252.392,1.252,1.056v.02h-.674a.57.57,0,0,0-.628-.578c-.367,0-.593.186-.593.463,0,.336.337.437.94.633.744.247,1.111.443,1.111,1.076,0,.654-.518,1.076-1.463,1.076s-1.433-.4-1.433-1.186v-.05Z" transform="translate(-378.767 -472.086)" fill="#2c2c2c"/>
      <path id="Path_13" data-name="Path 13" d="M480.722,474.594a.635.635,0,0,0,.714.724c.392,0,.648-.216.648-.5,0-.357-.332-.453-.935-.659a2.582,2.582,0,0,1-.759-.337.824.824,0,0,1-.317-.679c0-.628.5-1.061,1.377-1.061.8,0,1.252.392,1.252,1.056v.02h-.674a.57.57,0,0,0-.628-.578c-.367,0-.593.186-.593.463,0,.336.337.437.94.633.744.247,1.111.443,1.111,1.076,0,.654-.518,1.076-1.463,1.076s-1.433-.4-1.433-1.186v-.05Z" transform="translate(-418.384 -472.086)" fill="#2c2c2c"/>
    </g>
    <g id="Group_3" data-name="Group 3" transform="translate(93.873 350.459)">
      <path id="Path_14" data-name="Path 14" d="M104.112,359.207c2.745-.732,4.106-1.833,4.106-3.791,0-2.784-2.413-4.182-6.838-4.182H93.873v.552c1.38.051,1.71.368,1.71,1.645v12.784c0,1.278-.33,1.595-1.71,1.645v.552h8.548c4.33,0,6.927-1.742,6.927-4.555C109.348,360.581,106.812,359.373,104.112,359.207Zm-3.465-7.43c2.792,0,3.9.945,3.9,3.5s-1.088,3.639-3.928,3.639h-1.68v-5.836c0-.454,0-.886-.006-1.307C99.388,351.775,99.95,351.777,100.647,351.777Zm.568,16.092c-.963,0-1.716,0-2.3.007.018-.921.028-1.9.028-2.937v-5.388h1.822c3.052,0,4.637,1.441,4.637,4.206C105.4,366.735,104.2,367.87,101.214,367.87Z" transform="translate(-93.873 -351.109)" fill="#2c2c2c"/>
      <path id="Path_15" data-name="Path 15" d="M214.145,351.322a8.167,8.167,0,0,0-6.256,2.765,9.173,9.173,0,0,0-.023,12.17,8.489,8.489,0,0,0,12.58,0,9.174,9.174,0,0,0-.022-12.17A8.215,8.215,0,0,0,214.145,351.322Zm0,17.109c-3.3,0-4.936-2.741-4.936-8.247s1.638-8.271,4.936-8.271,4.959,2.765,4.959,8.271S217.467,368.431,214.145,368.431Z" transform="translate(-187.532 -351.182)" fill="#2c2c2c"/>
      <path id="Path_16" data-name="Path 16" d="M340.97,358.872a15.454,15.454,0,0,0-4-1.89c-2.65-.993-4.141-1.725-4.141-3.5a2.6,2.6,0,0,1,2.887-2.41c2.3,0,4.182,1.584,5.42,4.669h.684v-3.718a11.762,11.762,0,0,0-6.033-1.565c-3.313,0-5.324,1.867-5.324,4.7,0,2.694,1.774,4.064,5.3,5.364,3.076,1.134,4.637,2.032,4.637,3.994,0,1.82-1.325,3.025-3.478,3.025-2.677,0-4.374-1.635-5.782-5.1h-.653v4.19c.821.826,3.97,1.551,6.057,1.551,4.164,0,6.554-1.985,6.554-5.151A5,5,0,0,0,340.97,358.872Z" transform="translate(-292.256 -350.459)" fill="#2c2c2c"/>
      <path id="Path_17" data-name="Path 17" d="M434.819,358.872a15.46,15.46,0,0,0-4-1.89c-2.65-.993-4.141-1.725-4.141-3.5a2.6,2.6,0,0,1,2.887-2.41c2.3,0,4.182,1.584,5.42,4.669h.684v-3.718a11.764,11.764,0,0,0-6.033-1.565c-3.312,0-5.323,1.867-5.323,4.7,0,2.694,1.775,4.064,5.3,5.364,3.076,1.134,4.637,2.032,4.637,3.994,0,1.82-1.325,3.025-3.478,3.025-2.677,0-4.374-1.635-5.782-5.1h-.653v4.19c.821.826,3.97,1.551,6.057,1.551,4.164,0,6.554-1.985,6.554-5.151A5,5,0,0,0,434.819,358.872Z" transform="translate(-370.948 -350.459)" fill="#2c2c2c"/>
    </g>
  </g>
</svg>
