<svg xmlns="http://www.w3.org/2000/svg" width="52.863" height="35" viewBox="0 0 52.863 35">
  <g id="Group_19" data-name="Group 19" transform="translate(-189.544 -349.362)">
    <path id="path2342" d="M193.325,467.714l-.169-.017a4.01,4.01,0,0,1-1.874-.717,4.179,4.179,0,0,1-1.621-2.41,4.328,4.328,0,0,1-.071-1.635,4.165,4.165,0,0,1,2.481-3.213,4.011,4.011,0,0,1,1.038-.277,5.157,5.157,0,0,1,.946,0,3.957,3.957,0,0,1,1.237.368,3.716,3.716,0,0,1,1.1.794,3.969,3.969,0,0,1,.745,1.005l.049.089-.172.128c-.238.175-.794.573-.976.7l-.15.1-.062-.134a2.519,2.519,0,0,0-.218-.395,2.411,2.411,0,0,0-1.521-1.017,2.481,2.481,0,0,0-2.013.487,3.272,3.272,0,0,0-.408.4,2.569,2.569,0,0,0-.5,2.169,2.784,2.784,0,0,0,.365.855,2.486,2.486,0,0,0,1.769,1.1,3.388,3.388,0,0,0,.561,0,2.48,2.48,0,0,0,1.628-.915,2.571,2.571,0,0,0,.3-.461,1.1,1.1,0,0,1,.083-.146s.3.207.652.46l.644.46-.065.123a4.12,4.12,0,0,1-.586.809,3.921,3.921,0,0,1-1.2.889,4.015,4.015,0,0,1-1.29.379C193.923,467.71,193.4,467.722,193.325,467.714Zm5.509-4.186V459.5H200.4v2.893h4.085V459.5h1.564v8.059h-1.564v-3.546H200.4v3.546h-1.564v-4.03Zm8.794,3.315,1.787-4.03,1.47-3.315h2.194l1.778,3.98,1.8,4.03.022.049h-1.873l-.362-.8-.361-.8-2.093,0-2.093,0-.358.8-.358.8h-1.872Zm5.794-2.509c-.007-.029-1.427-3.2-1.433-3.2s-1.354,3.147-1.375,3.207c0,.007.537.011,1.4.011A13.981,13.981,0,0,0,213.423,464.333Zm4.519-.806V459.5h2.2l1.722,2.416,1.722,2.416,0-2.417,0-2.417h1.576v8.06l-.632,0-.632,0-2.184-3.029c-1.2-1.666-2.188-3.029-2.193-3.03s-.009,1.364-.009,3.032v3.032h-1.576Zm10.073,0V459.5h5.638v1.621h-4.062v1.61h3.758v1.621h-3.758v1.61h4.646v1.6h-6.221Zm8.427,0V459.5h1.576v6.462h4.389v1.6h-5.965Z" transform="translate(0 -83.354)" fill="#2c2c2c"/>
    <path id="path2387" d="M239.762,374.068a12.668,12.668,0,0,1-5.072-1.381,11.945,11.945,0,0,1-3.045-2.254,11.58,11.58,0,0,1-1.783-2.227l-.206-.34.293-.155c.571-.3,3.171-1.632,3.192-1.632a2.525,2.525,0,0,1,.239.325,8.538,8.538,0,0,0,5.957,3.688,12.4,12.4,0,0,0,2.21-.017,10.3,10.3,0,0,0,1.556-.353c.026-.009-.024-.089-.138-.224a12.181,12.181,0,0,1-2.318-11.25,12.269,12.269,0,0,1,2.17-4.178,3.291,3.291,0,0,0,.261-.35,5.574,5.574,0,0,0-1.247-.332,9.855,9.855,0,0,0-2.647-.035,8.9,8.9,0,0,0-3.258,1.2,8.586,8.586,0,0,0-2.563,2.5l-.3.449-.383-.2c-.211-.111-.995-.516-1.741-.9l-1.363-.7c-.012-.011.456-.753.648-1.03a14.063,14.063,0,0,1,2.388-2.558,12.36,12.36,0,0,1,6.742-2.708,17.263,17.263,0,0,1,2.068,0,11.858,11.858,0,0,1,4.369,1.234l.674.336.226-.128a12.942,12.942,0,0,1,1.5-.695,12.445,12.445,0,0,1,7.247-.433,12.107,12.107,0,0,1,5.68,3.155,12.233,12.233,0,0,1,2.113,2.685l.084.146-1.365.7c-.751.387-1.536.793-1.745.9l-.38.2-.287-.433a8.5,8.5,0,0,0-6.275-3.763,9.623,9.623,0,0,0-2.545.147,6.9,6.9,0,0,0-.916.261,2.554,2.554,0,0,0,.206.272,12.324,12.324,0,0,1,2.656,6.355,17,17,0,0,1,.016,2.6,12.2,12.2,0,0,1-2.618,6.383c-.328.4-.314.375-.209.416.05.019.282.083.517.143a8.722,8.722,0,0,0,3.679.122,8.467,8.467,0,0,0,5.432-3.563c.118-.174.224-.327.237-.341a3.937,3.937,0,0,1,.65.288c.684.342,2.826,1.45,2.849,1.473a10.574,10.574,0,0,1-1.063,1.576,17.134,17.134,0,0,1-1.932,1.927,12.3,12.3,0,0,1-13.462,1.284l-.31-.169-.384.2A12.3,12.3,0,0,1,239.762,374.068Zm7.114-7a8.634,8.634,0,0,0,1.888-4.538,11.058,11.058,0,0,0-.063-2.163,8.132,8.132,0,0,0-1.548-3.624c-.153-.2-.375-.473-.494-.6l-.216-.233-.2.218a10.3,10.3,0,0,0-.928,1.231,8.341,8.341,0,0,0-1.019,6.2,8.786,8.786,0,0,0,1.925,3.761l.215.246.094-.089C246.578,367.427,246.735,367.245,246.876,367.072Z" transform="translate(-30.326)" fill="#2c2c2c"/>
  </g>
</svg>
