<svg xmlns="http://www.w3.org/2000/svg" width="56" height="22.109" viewBox="0 0 56 22.109">
  <g id="Group_13" data-name="Group 13" transform="translate(-202.835 -384.336)">
    <path id="Path_62" data-name="Path 62" d="M205.108,384.861l-1.06-.055-.437-.087-.088-.164c0-.153.109-.219.328-.219h10.963q7.706,0,10.843,4.7a11.427,11.427,0,0,1,1.8,6.46,11.834,11.834,0,0,1-.6,3.771,11.445,11.445,0,0,1-1.913,3.411,9.641,9.641,0,0,1-3.246,2.481,10.831,10.831,0,0,1-4.547.929h-13.98c-.23,0-.339-.076-.339-.208s.164-.219.47-.219l2.678-.164a1.382,1.382,0,0,0,.853-.339l.273-.383a3.814,3.814,0,0,0,.164-1.191V386.249a1.225,1.225,0,0,0-1.126-1.257l-1.038-.131Zm5.9.3-.077.437v19.249c0,.218.044.372.131.426l.437.066h1.443l3.345-.12a11.55,11.55,0,0,0,2.263-.437,6.147,6.147,0,0,0,1.662-.918,8.969,8.969,0,0,0,1.377-1.53,10.207,10.207,0,0,0,1.771-4.11,16.192,16.192,0,0,0,.328-3.17,11.381,11.381,0,0,0-.4-2.9,11.223,11.223,0,0,0-1.782-3.924c-1.585-2.164-4.186-3.235-7.783-3.235H211.5q-.377-.033-.492.164Zm18.6,20.768c-.022-.131.087-.186.328-.186l.765-.022c.415-.055.667-.2.765-.415l.142-.787v-6.351a.608.608,0,0,0-.251-.535l-.568-.055-.765.208-.415-.022q-.082-.2.492-.361a10.118,10.118,0,0,0,2.383-.929,7.369,7.369,0,0,1,.841-.426l.328-.033c.109.022.164.241.164.634v8a1.131,1.131,0,0,0,.251.82,2.1,2.1,0,0,0,1.366.3c.251,0,.382.055.4.175,0,.1-.077.131-.208.131h-5.826c-.131,0-.2-.055-.2-.142Zm25.8-7.87a4.326,4.326,0,0,0-1.093,2V404.7a.972.972,0,0,0,.437.9l.667.12.7.077c.164.022.23.055.23.142l-.033.077-.186.055h-5.848c-.175,0-.273-.055-.273-.142l.164-.131.984-.077a1.062,1.062,0,0,0,.754-.393l.164-.492v-6.559l-.11-.481-.186-.11a.493.493,0,0,0-.273-.109,1.274,1.274,0,0,0-.568.109l-.557.153-.317-.077c-.054-.077-.033-.131.044-.164l.47-.2a12.818,12.818,0,0,0,2.536-.984l.743-.4.328.022.131.273v2.4a8.2,8.2,0,0,1,1.924-2.427,3.318,3.318,0,0,1,.732-.35l.383-.033a1.313,1.313,0,0,1,.82.251,1.236,1.236,0,0,1,.656,1.06,1.093,1.093,0,0,1-.328.907.684.684,0,0,1-.634.186.727.727,0,0,1-.427-.219l-.306-.383c-.24-.35-.47-.459-.743-.361a2.183,2.183,0,0,0-.984.711Zm-22.845-8.985a1.361,1.361,0,0,0-1.005.415,1.258,1.258,0,0,0-.415,1.028,1.2,1.2,0,0,0,.415.984,1.427,1.427,0,0,0,2.427-.984,1.421,1.421,0,0,0-.426-1.028,1.373,1.373,0,0,0-.995-.415Zm5.793,8.723a5.015,5.015,0,0,1,1.475-1.312,4.832,4.832,0,0,1,1.6-.6l2.022-.12a5.53,5.53,0,0,1,2.022.448,4.694,4.694,0,0,1,2.754,3.607,5.208,5.208,0,0,1-.907,4.482,5.452,5.452,0,0,1-3.268,1.968,6.557,6.557,0,0,1-3.968-.274,4.534,4.534,0,0,1-2.82-3.727,5.455,5.455,0,0,1,1.093-4.47Zm6.405-.492a2.886,2.886,0,0,0-2.525-.984A2.677,2.677,0,0,0,240.01,398a6.177,6.177,0,0,0-.448,3.443,5.68,5.68,0,0,0,1.235,3.235,2.576,2.576,0,0,0,2.492,1.061,2.955,2.955,0,0,0,2.153-1.585,6.625,6.625,0,0,0,.514-3.531,5.565,5.565,0,0,0-1.191-3.323Z" transform="translate(0 0)" fill="#2c2c2c" fill-rule="evenodd"/>
    <path id="Path_63" data-name="Path 63" d="M291.457,429.021v.109l-.24-.153v.055l.022.1h-.033v-.208h.011l.219.164v-.164h.044l-.022.1Z" transform="translate(-61.919 -31.241)" fill="#2c2c2c" fill-rule="evenodd"/>
    <path id="Path_64" data-name="Path 64" d="M293.013,428.945h-.131v.077h.109v.011h-.109v.076h.131v.022h-.164v-.208h.164v.022Z" transform="translate(-63.071 -31.241)" fill="#2c2c2c" fill-rule="evenodd"/>
    <path id="Path_65" data-name="Path 65" d="M294.382,428.923h.011l-.109.208h-.033l-.087-.164-.1.164h-.011a1.325,1.325,0,0,1-.109-.208H294l.066.164.1-.164h.033l.077.164.087-.164Z" transform="translate(-63.838 -31.241)" fill="#2c2c2c" fill-rule="evenodd"/>
    <path id="Path_66" data-name="Path 66" d="M296.1,429.033l.022.1h-.055v-.077l-.109-.131h.055l.087.109.087-.109h.044l-.131.109Z" transform="translate(-65.246 -31.241)" fill="#2c2c2c" fill-rule="evenodd"/>
    <path id="Path_67" data-name="Path 67" d="M297.323,428.967a.205.205,0,0,1,.131-.044.266.266,0,0,1,.131.044.092.092,0,0,1,.033.066l-.033.076a.257.257,0,0,1-.131.022c-.055,0-.109,0-.131-.022l-.055-.076a.069.069,0,0,1,.055-.066Zm.219,0-.087-.022-.087.022a.073.073,0,0,0-.044.066.073.073,0,0,0,.044.054l.087.044a.113.113,0,0,0,.087-.044.073.073,0,0,0,.044-.054.073.073,0,0,0-.044-.066Z" transform="translate(-66.167 -31.241)" fill="#2c2c2c" fill-rule="evenodd"/>
    <path id="Path_68" data-name="Path 68" d="M299.149,428.945l-.011.077h.033c.055,0,.087-.022.087-.044s-.011-.033-.066-.033Zm.055-.022c.055,0,.1.022.1.055l-.044.044-.055.011.131.1h-.055l-.131-.1h-.011l.011.1h-.055v-.208Z" transform="translate(-67.446 -31.241)" fill="#2c2c2c" fill-rule="evenodd"/>
    <path id="Path_69" data-name="Path 69" d="M300.748,428.923l-.142.1.142.109h-.055l-.12-.1v-.011l-.022.011.022.1h-.055v-.208h.055l-.022.1h.022l.142-.1Z" transform="translate(-68.444 -31.241)" fill="#2c2c2c" fill-rule="evenodd"/>
  </g>
</svg>
