<svg xmlns="http://www.w3.org/2000/svg" width="34.077" height="35" viewBox="0 0 34.077 35">
  <g id="Group_5" data-name="Group 5" transform="translate(-206.171 -327.724)">
    <path id="Path_18" data-name="Path 18" d="M210,335.359c-1.017,0-3.829-.635-3.829-3.622a3.606,3.606,0,0,1,3.757-3.63,5.68,5.68,0,0,1,2.9.643h0v1.4h0a.119.119,0,1,1-.238,0,2.29,2.29,0,0,0-2.24-1.636,2.949,2.949,0,0,0-2.876,3.161c0,1.779,1.128,3.3,2.828,3.257a2.551,2.551,0,0,0,1.407-.422h0l.007-1.548h0a.527.527,0,0,0-.54-.6.127.127,0,1,1,0-.254h2.319c.175,0,.175.27,0,.254a.527.527,0,0,0-.54.6h0v1.589h0a5.237,5.237,0,0,1-2.955.81Z" transform="translate(0 -0.311)" fill="#2c2c2c" fill-rule="evenodd"/>
    <path id="Path_19" data-name="Path 19" d="M294.47,335.048A5.984,5.984,0,0,0,297.5,334h0v-1.3h0c0-.175-.111-.206-.175.016a3.09,3.09,0,0,1-2.574,1.954c-1.7.048-2.812-1.525-2.812-3.3a2.991,2.991,0,0,1,2.875-3.209,2.315,2.315,0,0,1,2.24,1.684c0,.159.175.175.175,0h0v-1.4h0a5.457,5.457,0,0,0-2.844-.715,3.668,3.668,0,0,0-3.749,3.7c0,2.987,2.812,3.622,3.829,3.622Z" transform="translate(-68.673)" fill="#2c2c2c" fill-rule="evenodd"/>
    <path id="Path_20" data-name="Path 20" d="M376.351,335.394a.527.527,0,0,1-.54-.6h0V329.5h0a.527.527,0,0,1,.54-.6c.254,0,.254-.238,0-.238h-2.335c-.254,0-.254.238,0,.238a.527.527,0,0,1,.54.6h0v5.29h0a.527.527,0,0,1-.54.6c-.254,0-.254.318,0,.318h2.335c.254,0,.254-.318,0-.318Z" transform="translate(-136.294 -0.759)" fill="#2c2c2c" fill-rule="evenodd"/>
    <path id="Path_21" data-name="Path 21" d="M248.973,328.9a.527.527,0,0,1,.54.6h0v3.471h0a2.864,2.864,0,0,0,2.963,2.884,2.9,2.9,0,0,0,3.011-2.884h0l.032-3.471h0a.527.527,0,0,1,.54-.6c.254,0,.254-.238,0-.238h-1.62c-.254,0-.254.238,0,.238a.527.527,0,0,1,.54.6h0l.058,3.638h0a2.34,2.34,0,0,1-2.123,2.362,2.13,2.13,0,0,1-2.131-2.123h0l0-3.876h0a.527.527,0,0,1,.54-.6c.254,0,.254-.238,0-.238h-2.351c-.254,0-.254.238,0,.238Z" transform="translate(-34.643 -0.761)" fill="#2c2c2c" fill-rule="evenodd"/>
    <path id="Path_22" data-name="Path 22" d="M249.983,415.69a10.229,10.229,0,0,1-14.765,9.184,10.244,10.244,0,1,1,0-18.372,10.236,10.236,0,0,1,14.767,9.188Zm-2.019,0a8.214,8.214,0,0,0-10.686-7.842,10.118,10.118,0,0,1,3.268,5.1h0l-2.118,0h0a8.231,8.231,0,0,0-3.212-4.118,8.244,8.244,0,0,0-3.2,4.118h0l-2.118,0h0a10.217,10.217,0,0,1,3.281-5.112,8.305,8.305,0,0,0-2.49-.372,8.223,8.223,0,1,0,2.458,16.071,10.2,10.2,0,0,1-3.581-7.023h4.866v2.01l-2.368.033h0a8.248,8.248,0,0,0,3.164,3.99,8.192,8.192,0,0,0,3.157-3.99h0l-2.367-.033v-2.01h4.866a10.208,10.208,0,0,1-3.615,7.013,8.214,8.214,0,0,0,10.7-7.837Z" transform="translate(-11.608 -63.211)" fill="#2c2c2c" fill-rule="evenodd"/>
    <path id="Path_23" data-name="Path 23" d="M336.547,335.048A5.984,5.984,0,0,0,339.582,334h0v-1.3h0c0-.175-.111-.206-.175.016a3.09,3.09,0,0,1-2.574,1.954c-1.7.048-2.812-1.525-2.812-3.3a2.991,2.991,0,0,1,2.875-3.209,2.316,2.316,0,0,1,2.24,1.684c0,.159.175.175.175,0h0v-1.4h0a5.457,5.457,0,0,0-2.844-.715,3.668,3.668,0,0,0-3.749,3.7c0,2.987,2.812,3.622,3.828,3.622Z" transform="translate(-102.889)" fill="#2c2c2c" fill-rule="evenodd"/>
  </g>
</svg>
