<svg xmlns="http://www.w3.org/2000/svg" width="56.892" height="27.35" viewBox="0 0 56.892 27.35">
  <g id="Group_8" data-name="Group 8" transform="translate(-437.647 -129.842)">
    <g id="Group_6" data-name="Group 6" transform="translate(451.854 129.842)">
      <path id="Path_24" data-name="Path 24" d="M541.25,141.73a1,1,0,0,0-.425-.265c-.124-.059-.106-.18-.21-.215s-.292.183-.437.138-.134-.317-.255-.357-.338.163-.451.128-.135-.316-.244-.352-.337.169-.449.134-.12-.314-.244-.355-.342.168-.451.131-.123-.31-.242-.35-.341.164-.452.128-.145-.32-.25-.354-.314.135-.483.125c-1.172-.109-1.621-.847-1.7-.629s.245.734.65.909c.324.141,3.815,1.107,3.907,1.15s.31.142.231.27c-.122.163-.462,0-.549-.07s-.068-.1-.15-.122c-.187-.044-.291.3-.489.251-.18-.04-.168-.4-.351-.445-.2-.049-.293.294-.485.249-.159-.036-.181-.4-.352-.446-.2-.048-.286.3-.49.249-.176-.041-.166-.4-.35-.445s-.312.29-.486.25-.2-.408-.354-.444-.283.152-.5.179c0,0-.611.165-1.577-.844s-1.365-1.2-1.915-.792c-.9.67-1.458.227-1.62.028a.321.321,0,0,1,.009-.438s.286.441.645.449c.579.017,1.016-.773,2.009-.787a4.2,4.2,0,0,1,1.929.437.856.856,0,0,0,.645-.148h0c.178-.063.333.281.52.212s.053-.422.266-.5.329.278.519.207.073-.43.265-.5.313.281.518.206.073-.426.261-.5.333.276.524.209.077-.434.265-.5.321.278.528.2c.171-.059.076-.429.253-.5s.341.277.525.208.072-.431.255-.5.344.273.528.208.044-.362.281-.48c0,0,.328-.108.308-.349a.767.767,0,0,0-.611-.665c-.52-.1-4.627,1.032-4.68.966-.378-.747-.862-.539-.936-.522a1.524,1.524,0,0,1-1.042.019c-1-.451-1.794.7-2.34.546a1.83,1.83,0,0,0-1.1.012,1.348,1.348,0,0,1-1.17.09,14.468,14.468,0,0,0-9.136-.22c-2.26.755-2.549,0-2.549,0s-.744-1.01,4.492-2.215c7.526-1.729,7.753-4.59,7.664-4.771-.124-.262-.171.047-.418.331a.385.385,0,0,1-.45.12c-.237-.114-.388.157-.388.157s-.3.473-.574.2-.6.325-.731.348c-.154.027-.229-.048-.435-.143-.309-.137-.641.426-.811.466-.26.059-.443-.307-.667-.152-.668.462-.774.526-.954.346-.133-.136-.153-.283-.6.145-.38.365-.562.433-.715.2s-.116-.552-.77.075c-.312.3-.471.305-.65.171-.135-.1-.133-.583-.6-.147-.425.393-.733.565-.853.216-.133-.392-.633.072-.749.181s-.377.4-.557.1-.612.148-.869.432c-.2.221-.358.05-.567-.089-.238-.163-.948.829-1.013.889s-.115,0-.277-.138c-.25-.212-.925.967-1.034,1.044,0,0-.046.1-.23-.074-.262-.249-1.653,1.581-2.177,3.652a7.1,7.1,0,0,0,.4,4.691.567.567,0,0,0,.458-.207l.208-.469c.169-.391.445-.268.445-.268l-.655,1.952a1.084,1.084,0,0,0,.188.965,3.71,3.71,0,0,0,.538.74c.532.5.478-.092.492-.166.062-.317.414-.074.69.078.5.281.445-.34.555-.542.076-.145.322-.151.59.072.208.174.415-.415.415-.415.26-1.255-.35-1.4-.68-1.419l-.668-.031a3.061,3.061,0,0,1,.113-.37l.03-.127c.728-1.815-.489-2.165-.853-2.136-.4.036-.374-.22-.374-.22s2.2-.433,1.79,1.9c0,0-.081.406-.13.618l.6.07c.52.065.612.68.612.68a9.141,9.141,0,0,0,3,.3s.485-.116.62-.417a3.11,3.11,0,0,1,2.754-1.726s.072.214-.256.326a2.2,2.2,0,0,0-1.974,1.741v.006a.986.986,0,0,0,.572,1.016c.456.206.617,1.036.711,1.261.266.637.663.028.663.028s.252-.514.468-.229c.365.481.535.239.618-.068.091-.33.223-.474.606-.073.163.174.484.04.516-.259.068-.657.512-.135.575-.109s.541-.076.281-.817c0,0-.351-.706-1.935-1.011-.372-.07-.313-.34-.313-.34l.349.049c.1.017,1.025.119,1.123.135a13.559,13.559,0,0,0,6.884-1.023,24.008,24.008,0,0,0,7.849.1C541.282,142.3,541.339,141.85,541.25,141.73Zm-6.2-4.79a.484.484,0,0,1,.176-.186c.233-.132.382.282.353.3l-.009,0v0a2.1,2.1,0,0,1-.53.116C534.954,137.112,535.053,136.94,535.053,136.94Zm-1.707.131a.385.385,0,0,1,.17-.11.551.551,0,0,1,.5.1c.255.162.249.288.249.288a.236.236,0,0,1-.032.013,7.7,7.7,0,0,1-.943.165A.363.363,0,0,1,533.346,137.071ZM519.2,133.4c.128.1.005.664-.086.581l-.655-.346S519.069,133.306,519.2,133.4Zm-1.065.361c.129.1.008.663-.083.579l-.653-.347S518,133.664,518.134,133.762Zm-.368,1.106c.129.1.008.665-.084.583l-.654-.351S517.636,134.772,517.766,134.868Zm-.623,1.485-.655-.348s.609-.33.738-.233S517.232,136.437,517.142,136.354Zm-.123,1.12-.653-.348s.608-.329.737-.234S517.112,137.553,517.019,137.474Zm-.012-3.317c.13.1.007.661-.084.581l-.655-.349S516.878,134.059,517.007,134.157Zm-.568.862c.128.1.007.661-.084.581l-.654-.348S516.309,134.921,516.439,135.019Zm-1.168,1.353s.611-.331.738-.233.008.662-.084.58Zm.5,1.417-.653-.349s.609-.327.737-.231S515.865,137.87,515.773,137.789Zm-.466-2.377c.129.094.007.661-.084.579l-.652-.349S515.177,135.314,515.307,135.411Zm-.589,1.141c.13.1.008.665-.085.581l-.653-.347S514.59,136.459,514.719,136.553Zm-.86,1.352s.608-.327.738-.231.006.663-.084.581Zm1.167,1.278-.653-.348s.609-.33.738-.233S515.117,139.264,515.026,139.183Zm.938.759-.654-.347s.609-.33.739-.234S516.053,140.026,515.963,139.942Zm.293-1.186-.654-.349s.609-.327.738-.233S516.347,138.836,516.256,138.756Zm.87,1.7-.652-.348s.606-.329.736-.233S517.219,140.533,517.126,140.454Zm.314-1.092-.653-.348s.608-.327.737-.231S517.532,139.445,517.44,139.362Zm.216-1.032-.653-.348s.608-.327.738-.231S517.747,138.411,517.656,138.33Zm.919,1.992-.653-.35s.608-.327.738-.232S518.667,140.4,518.575,140.322Zm.283-1.087-.653-.347s.609-.331.738-.233S518.948,139.315,518.858,139.235Zm.237-1.152-.653-.348s.608-.326.739-.232S519.186,138.165,519.095,138.083Zm.918,2.035-.655-.348s.609-.329.74-.234S520.1,140.2,520.013,140.118Zm.219-1.163-.653-.35s.609-.328.738-.233S520.324,139.033,520.232,138.955Zm.228-1.194-.653-.349s.608-.328.738-.232S520.552,137.843,520.46,137.761Zm.984,1.9-.654-.345s.609-.329.737-.234S521.535,139.741,521.443,139.658Zm.179-1.145-.655-.346s.609-.329.737-.234S521.713,138.6,521.622,138.513Zm.227-1.123-.655-.346s.61-.331.738-.235S521.939,137.474,521.849,137.39Zm1,2.026-.654-.348s.607-.329.738-.233S522.942,139.5,522.85,139.416Zm.178-1.069-.654-.347s.61-.332.738-.233S523.12,138.429,523.029,138.347Zm.215-1.141-.655-.347s.609-.332.74-.233S523.337,137.286,523.244,137.205Zm.906,2.231-.652-.348s.608-.331.737-.232S524.242,139.517,524.15,139.436Zm.216-1.148-.655-.347s.61-.331.74-.233S524.456,138.37,524.366,138.288Zm.245-1.143-.654-.348s.609-.331.739-.233S524.7,137.228,524.61,137.145Zm.9,2.291-.654-.35s.608-.329.738-.23S525.6,139.517,525.512,139.436Zm.209-1.085-.652-.349s.607-.326.737-.233S525.813,138.434,525.721,138.351Zm.247-1.11-.652-.347s.608-.328.738-.233S526.06,137.323,525.969,137.241Zm.824,2.358-.654-.351s.609-.326.739-.229S526.885,139.681,526.793,139.6Zm.231-1.052-.654-.347s.61-.329.738-.233S527.113,138.632,527.024,138.548Zm.25-1.074-.655-.346s.61-.329.74-.235S527.362,137.553,527.274,137.474Zm1.019,1.3-.653-.344s.608-.33.738-.235S528.384,138.858,528.293,138.775Z" transform="translate(-512.412 -129.842)" fill="#2c2c2c"/>
    </g>
    <g id="Group_7" data-name="Group 7" transform="translate(437.647 148.081)">
      <path id="Path_25" data-name="Path 25" d="M478.442,226.745a.806.806,0,0,0-.871-.526c-.043,0-2.241,0-2.241,0l-3.253,8.858h1.583a.773.773,0,0,0,.377-.063,1.1,1.1,0,0,0,.5-.619s.443-1.234.473-1.315h3.273c.068.209.665,1.994.665,1.994h2.143l-1.359-4.311-1.293-4.019m-.66,4.518h-2.205c.238-.651.83-2.3,1.083-2.966C476.878,228.97,477.776,231.241,477.782,231.263Z" transform="translate(-465.535 -226.144)" fill="#2c2c2c"/>
      <path id="Path_26" data-name="Path 26" d="M568.079,225.859h0a4.512,4.512,0,0,0,0,9.02,4.51,4.51,0,0,0,0-9.02m.063,7.044a2.408,2.408,0,0,1-2.3-2.545,2.344,2.344,0,0,1,2.3-2.48,2.294,2.294,0,0,1,2.248,2.48A2.356,2.356,0,0,1,568.142,232.9Z" transform="translate(-539.75 -225.852)" fill="#2c2c2c"/>
      <path id="Path_27" data-name="Path 27" d="M620.121,229.848l-.083-.024s-.824-.25-.826-.252l-.123-.044c-.675-.244-1.155-.448-1.155-.842v-.029c.067-.653,1.278-.659,1.29-.659a4.526,4.526,0,0,1,1.831.363l.014.005.028.008a.956.956,0,0,0,.388.011l.18-.068c.258-.142.516-.895.614-1.212l.032-.1-.08-.073a3.028,3.028,0,0,0-.91-.443,6.6,6.6,0,0,0-1.693-.3l-.49,0c-2.557,0-3.534,1.578-3.565,2.638s.58,1.6,1.489,2.093a8.758,8.758,0,0,0,1.578.545s.521.153.521.153c.953.3,1.317.632,1.249,1.147-.031.17-.352.452-1.084.452a4.665,4.665,0,0,1-1.583-.268,5.572,5.572,0,0,1-.786-.392l-.013-.008-.028-.012a.949.949,0,0,0-.405-.07l-.2.043c-.293.11-.7.855-.865,1.171l-.064.124.111.088a9.459,9.459,0,0,0,.86.6,5.383,5.383,0,0,0,1.567.556,6.632,6.632,0,0,0,1.233.1c1.982,0,3.421-1,3.587-2.5C622.811,231.287,621.979,230.4,620.121,229.848Z" transform="translate(-581.608 -226.113)" fill="#2c2c2c"/>
      <path id="Path_28" data-name="Path 28" d="M658.619,226.29a1.22,1.22,0,0,0-.763.237.535.535,0,0,0-.174.4v1.4l2.7,0v6.81l2.215,0V228.33h1.74a1.238,1.238,0,0,0,.763-.238.543.543,0,0,0,.175-.405v-1.4Z" transform="translate(-615.869 -226.201)" fill="#2c2c2c"/>
      <path id="Path_29" data-name="Path 29" d="M442.406,233.111H439.92c0-.327-.007-6.038-.007-6.038a.764.764,0,0,0-.226-.589,1.05,1.05,0,0,0-.733-.222l-1.307,0,0,8.852h5.543l0-1.407C443.2,233.525,443.12,233.111,442.406,233.111Z" transform="translate(-437.647 -226.177)" fill="#2c2c2c"/>
      <path id="Path_30" data-name="Path 30" d="M526.192,227.792a4.2,4.2,0,0,1,1.416.117,1.044,1.044,0,0,0,.611.042l.177-.078c.248-.153.425-.931.509-1.379l.019-.105-.09-.065a3.981,3.981,0,0,0-.9-.282,6.554,6.554,0,0,0-1.7-.219H526.2a4.558,4.558,0,0,0-4.676,4.545v.019a4.558,4.558,0,0,0,4.677,4.546h.034a6.65,6.65,0,0,0,1.7-.222,3.894,3.894,0,0,0,.9-.281l.09-.063-.019-.106c-.084-.451-.261-1.228-.509-1.381h0l-.176-.078a1.062,1.062,0,0,0-.615.046,4.273,4.273,0,0,1-1.419.115,2.6,2.6,0,0,1,.007-5.17Z" transform="translate(-505.586 -225.821)" fill="#2c2c2c"/>
      <path id="Path_31" data-name="Path 31" d="M709.937,235.14a.886.886,0,0,0,.924-.889l-.007-1.111-3.9,0s.007-1.273.007-1.484h3.222l-.005-2.048-3.211,0c0-.242,0-1.029,0-1.273l2.958,0a1.153,1.153,0,0,0,.762-.237.927.927,0,0,0,.175-.631V226.3h-6.14v8.848Z" transform="translate(-653.968 -226.208)" fill="#2c2c2c"/>
    </g>
  </g>
</svg>
