<svg xmlns="http://www.w3.org/2000/svg" width="72.178" height="24.166" viewBox="0 0 72.178 24.166">
  <g id="Group_25" data-name="Group 25" transform="translate(-208.504 -391.846)">
    <path id="Path_177" data-name="Path 177" d="M272.43,402.739a2.471,2.471,0,0,1,2.6-2.426c1.522,0,2.205.835,2.494,2.426ZM259.308,409.8h3.136v-5.268c0-2.375.793-3.746,3.09-3.746a2.48,2.48,0,0,1,.4.037v-2.8a5.208,5.208,0,0,0-.6-.073,2.867,2.867,0,0,0-3.007,2.022h-.046V398.2h-2.98v11.6ZM215,401.978c.115-1.234.885-1.678,2.077-1.678,1.105,0,1.926.513,1.926,1.293,0,.986-1.407.931-3.329,1.206-1.715.243-3.608,1.169-4.03,2.989V391.846H208.5v17.826h3.136v-2.3a3.864,3.864,0,0,0,4.03,2.82,4.712,4.712,0,0,0,3.567-1.5,1.394,1.394,0,0,0,.22,1.1h3.177a4.635,4.635,0,0,1-.459-2.664v-4.824c0-3.617-2.673-4.36-4.947-4.36-2.563,0-5.062.862-5.071,4.03Zm4.108,3.278a2.706,2.706,0,0,1-.275,1.4,2.971,2.971,0,0,1-2.242,1.082c-1.018,0-1.912-.458-1.921-1.27-.009-.83.88-1.3,1.834-1.573s1.967-.491,2.6-.683v1.046Zm19.169,4.539h3.136v-5.268c0-2.324.756-3.682,2.939-3.741a4.965,4.965,0,0,0-.147,1.192h2.842c.11-1.234.88-1.678,2.072-1.678,1.105,0,1.926.513,1.926,1.293,0,.986-1.407.931-3.329,1.206-1.939.275-4.117,1.43-4.117,3.759s1.953,3.636,4.117,3.636a4.7,4.7,0,0,0,3.567-1.5,1.433,1.433,0,0,0,.22,1.1h3.182a4.6,4.6,0,0,1-.463-2.664v-4.824c0-3.617-2.673-4.36-4.947-4.36-1.738,0-3.453.4-4.374,1.651v-1.577a5.224,5.224,0,0,0-.6-.073,2.87,2.87,0,0,0-3.007,2.022h-.041V398.2h-2.98v3.677c-.582-2.315-2.15-4.15-4.851-4.15a3.732,3.732,0,0,0-3.351,1.766h-.046V398.26h-3.017v17.752h3.173v-7.446h.041a3.78,3.78,0,0,0,3.375,1.458,4.776,4.776,0,0,0,4.677-3.888V409.8Zm-5.5-2.4c-2,0-2.7-1.54-2.7-3.393s.651-3.686,2.677-3.686c1.981,0,2.618,1.875,2.618,3.686,0,1.586-.573,3.393-2.6,3.393Zm18.376-2.136a2.706,2.706,0,0,1-.275,1.4,2.963,2.963,0,0,1-2.242,1.082c-1.014,0-1.912-.458-1.921-1.27,0-.83.881-1.3,1.834-1.573.972-.271,1.971-.491,2.6-.683v1.046ZM269.6,393.909h-3.136v2.586H269.6v-2.586Zm-3.136,15.763H269.6v-3.581a5.423,5.423,0,0,0,5.525,3.893,5.131,5.131,0,0,0,5.341-3.847h-2.755a2.582,2.582,0,0,1-2.476,1.481c-1.742,0-2.714-.9-2.8-2.893h8.234c.22-3.508-1.655-6.777-5.543-6.777a5.589,5.589,0,0,0-5.525,4V398.26h-3.136v11.412Zm-8.147-15.763h-3.136v2.586h3.136v-2.586Zm-3.136,15.763h3.136V398.26h-3.136v11.412Z" fill="#2c2c2c" fill-rule="evenodd"/>
    <path id="Path_178" data-name="Path 178" d="M288.191,442.538c.018.853.738,1.229,1.632,1.229.779,0,1.554-.312,1.554-1.082a.939.939,0,0,0-.761-.876c-.2-.05-1.068-.247-1.128-.266-.28-.064-.463-.2-.463-.44,0-.348.4-.449.715-.449.472,0,.812.165.844.61h.683c0-.72-.683-1.1-1.5-1.1-.706,0-1.43.325-1.43,1.013,0,.353.2.71.866.871.537.128.894.193,1.165.284a.412.412,0,0,1,.326.422c0,.261-.225.518-.825.518-.55,0-.995-.206-.995-.733Zm4.429,1.146h.706l.8-2.632h.014l.779,2.632h.7l1.078-3.438H296l-.729,2.627h-.009l-.77-2.627h-.7l-.789,2.627h-.014l-.706-2.627h-.692l1.027,3.438Zm4.52,0h.683v-3.438h-.683v3.438Zm1.151-2.92h1.238v2.92h.683v-2.92h1.242v-.518h-3.164v.518Zm3.5,0h2.1l-2.274,2.426v.495h3.2v-.522h-2.329l2.274-2.458v-.458h-2.971v.518Zm3.563,2.92h2.852v-.522H306.04v-1h1.971v-.491H306.04v-.9h2.132v-.518h-2.815v3.438Zm4.131-2.948H310.6c.353,0,.678.087.678.527,0,.358-.238.545-.669.545h-1.124v-1.073Zm-.683,2.948h.683v-1.416H310.5c.628,0,.78.28.78.908a.893.893,0,0,0,.1.509h.733a1.436,1.436,0,0,1-.211-.908.646.646,0,0,0-.582-.724v-.009a.863.863,0,0,0,.646-.867c0-.582-.436-.931-1.293-.931H308.8v3.438Zm3.856,0h2.668v-.522h-1.985v-2.916h-.683v3.438Zm4.534-2.847h.018l.587,1.476h-1.2l.591-1.476Zm-1.848,2.847h.706l.367-.912h1.559l.367.912h.734l-1.5-3.438h-.729l-1.5,3.438Zm4.076,0h.651v-2.531h.018l1.779,2.531h.72v-3.438h-.651v2.531h-.009l-1.784-2.531h-.724v3.438Zm4.663-2.948h.674c1.073,0,1.3.541,1.3,1.229s-.23,1.224-1.3,1.224h-.674v-2.453Zm-.683,2.948h1.623a1.719,1.719,0,1,0,0-3.438H323.4v3.438Z" transform="translate(-46.961 -28.474)" fill="#2c2c2c" fill-rule="evenodd"/>
  </g>
</svg>
